<?xml version="1.0" encoding="UTF-8" standalone="no"?>
<svg
   xmlns:dc="http://purl.org/dc/elements/1.1/"
   xmlns:cc="http://creativecommons.org/ns#"
   xmlns:rdf="http://www.w3.org/1999/02/22-rdf-syntax-ns#"
   xmlns:svg="http://www.w3.org/2000/svg"
   xmlns="http://www.w3.org/2000/svg"
   xmlns:sodipodi="http://sodipodi.sourceforge.net/DTD/sodipodi-0.dtd"
   xmlns:inkscape="http://www.inkscape.org/namespaces/inkscape"
   id="Layer_1"
   data-name="Layer 1"
   viewBox="0 0 284.56 70.62"
   version="1.1"
   sodipodi:docname="Aadhyarupam-Elements-Logo-R.svg"
   inkscape:export-filename="D:\software\bring2home\digital\images\Aadhyarupam-Elements-Logo-R.png"
   inkscape:export-xdpi="96"
   inkscape:export-ydpi="96"
   inkscape:version="1.0.1 (3bc2e813f5, 2020-09-07)">
  <sodipodi:namedview
     pagecolor="#ffffff"
     bordercolor="#666666"
     borderopacity="1"
     objecttolerance="10"
     gridtolerance="10"
     guidetolerance="10"
     inkscape:pageopacity="0"
     inkscape:pageshadow="2"
     inkscape:window-width="1920"
     inkscape:window-height="1001"
     id="namedview27"
     showgrid="false"
     inkscape:zoom="4.6527973"
     inkscape:cx="141.94889"
     inkscape:cy="35.310001"
     inkscape:window-x="-9"
     inkscape:window-y="-9"
     inkscape:window-maximized="1"
     inkscape:current-layer="g42"
     inkscape:document-rotation="0" />
  <metadata
     id="metadata47">
    <rdf:RDF>
      <cc:Work
         rdf:about="">
        <dc:format>image/svg+xml</dc:format>
        <dc:type
           rdf:resource="http://purl.org/dc/dcmitype/StillImage" />
        <dc:title />
      </cc:Work>
    </rdf:RDF>
  </metadata>
  <defs
     id="defs4">
    <style
       id="style2">
      .cls-1 {
        opacity: 0.5;
      }

      .cls-2, .cls-3 {
        font-size: 41.42px;
        font-family: Bauhaus93, &quot;Bauhaus 93&quot;;
      }

      .cls-2 {
        fill: #1b1c51;
      }

      .cls-3 {
        fill: #ed1968;
      }

      .cls-4, .cls-9 {
        fill: #f26531;
      }

      .cls-5 {
        fill: #005fae;
      }

      .cls-6, .cls-8 {
        fill: #ffde17;
      }

      .cls-6 {
        letter-spacing: 0em;
      }

      .cls-7 {
        letter-spacing: 0em;
      }

      .cls-9 {
        font-size: 20.71px;
        font-family: VladimirScript, Vladimir Script;
      }

      .cls-10 {
        font-size: 10.36px;
        fill: #fff;
        font-family: Calibri-Bold, Calibri;
        font-weight: 700;
      }
    </style>
  </defs>
  <g
     id="g42">
    <g
       id="g909"
       transform="translate(-6.2425348,3.1666013)">
      <g
         id="g32"
         transform="translate(12)"
         inkscape:export-xdpi="96"
         inkscape:export-ydpi="96">
        <g
           class="cls-1"
           id="g8">
          <g
             aria-label="Aadhyarupam"
             transform="translate(1.5,36.03)"
             id="text6"
             style="font-size:41.42px;font-family:Bauhaus93, 'Bauhaus 93';fill:#1b1c51"
             class="cls-2">
            <path
               d="m 12.781953,-13.853857 v 7.2808592 h -2.36628 V 0 H 2.2044823 v -17.55496 q 0,-5.096601 2.7707714,-7.907822 2.790996,-2.831445 7.8269233,-2.831445 4.853906,0 7.179736,2.568525 2.32583,2.548301 2.32583,7.887597 V 0 h -8.211191 v -17.29204 q 0,-1.617969 -0.384267,-2.244932 -0.384268,-0.626963 -1.375274,-0.626963 -1.921338,0 -1.921338,2.871895 v 3.438183 z"
               style="font-size:41.42px;font-family:Bauhaus93, 'Bauhaus 93';fill:#1b1c51"
               id="path1029" />
            <path
               d="m 37.921142,-7.5640036 v 7.82692351 q -0.930332,0.16179687 -1.698868,0.16179687 -4.550536,0 -7.584228,-2.99324208 -3.033691,-2.993242 -3.033691,-7.5033297 0,-4.38874 3.053916,-7.442656 3.07414,-3.053916 7.46288,-3.053916 4.894356,0 7.705576,2.871895 2.831445,2.851669 2.831445,7.8066985 V 0 h -7.564003 v -9.3437691 q 0,-1.5977439 -0.78876,-2.5483009 -0.768535,-0.950556 -2.083135,-0.950556 -1.193251,0 -2.06291,0.869658 -0.869658,0.869658 -0.869658,2.0629098 0,1.2539258 0.78876,2.0629101 0.78876,0.8089843 2.002236,0.8089843 0.991006,0 1.84044,-0.5258398 z"
               style="font-size:41.42px;font-family:Bauhaus93, 'Bauhaus 93';fill:#1b1c51"
               id="path1031" />
            <path
               d="m 63.485048,-27.606591 h 7.564003 v 16.80665 q 0,4.6314354 -2.426953,7.543779 -1.395498,1.6786425 -3.559531,2.66964835 -2.143808,0.99100582 -4.408965,0.99100582 -4.510087,0 -7.604452,-3.03369127 -3.094366,-3.0336913 -3.094366,-7.4426559 0,-4.267392 3.074141,-7.381982 3.07414,-3.11459 7.280859,-3.11459 0.667412,0 2.022461,0.121348 v 8.332539 q -0.930332,-0.728086 -1.860664,-0.728086 -1.173027,0 -2.022461,0.869658 -0.829209,0.849433 -0.829209,2.0629098 0,1.1730273 0.869658,2.0224609 0.869658,0.8292089 2.083135,0.8292089 2.912344,0 2.912344,-4.0246966 z"
               style="font-size:41.42px;font-family:Bauhaus93, 'Bauhaus 93';fill:#1b1c51"
               id="path1033" />
            <path
               d="m 82.597305,-27.606591 v 8.433662 q 1.921338,-1.395498 3.842676,-1.395498 2.912343,0 4.611211,2.103359 1.719091,2.10336 1.719091,5.683115 V 0 H 85.20628 v -10.658369 q 0,-1.294375 -0.283145,-1.739316 -0.26292,-0.444941 -1.051679,-0.444941 -1.274151,0 -1.274151,1.880888 V 0 h -7.564003 v -27.606591 z"
               style="font-size:41.42px;font-family:Bauhaus93, 'Bauhaus 93';fill:#1b1c51"
               id="path1035" />
            <path
               d="M 99.788219,8.8381539 V 2.2651561 q 1.537071,0.6471875 2.689871,0.6471875 3.68088,0 4.77301,-4.1460447 -1.98201,1.17302727 -3.88313,1.17302727 -2.81122,0 -4.631431,-2.08313467 -1.820215,-2.1033593 -1.820215,-5.3392966 V -20.163935 h 7.564006 v 10.8403905 q 0,1.7999901 1.49662,1.7999901 1.43595,0 1.43595,-1.9820116 v -10.658369 h 7.564 v 17.9999019 q 0,5.0359275 -2.83145,8.1302926 -3.37751,3.6808787 -8.17074,3.6808787 -2.10336,0 -4.186491,-0.8089843 z"
               style="font-size:41.42px;font-family:Bauhaus93, 'Bauhaus 93';fill:#1b1c51"
               id="path1037" />
            <path
               d="m 130.5903,-7.5640036 v 7.82692351 q -0.93034,0.16179687 -1.69887,0.16179687 -4.55054,0 -7.58423,-2.99324208 -3.03369,-2.993242 -3.03369,-7.5033297 0,-4.38874 3.05392,-7.442656 3.07414,-3.053916 7.46288,-3.053916 4.89435,0 7.70557,2.871895 2.83145,2.851669 2.83145,7.8066985 V 0 h -7.56401 v -9.3437691 q 0,-1.5977439 -0.78876,-2.5483009 -0.76853,-0.950556 -2.08313,-0.950556 -1.19325,0 -2.06291,0.869658 -0.86966,0.869658 -0.86966,2.0629098 0,1.2539258 0.78876,2.0629101 0.78876,0.8089843 2.00224,0.8089843 0.991,0 1.84044,-0.5258398 z"
               style="font-size:41.42px;font-family:Bauhaus93, 'Bauhaus 93';fill:#1b1c51"
               id="path1039" />
            <path
               d="m 154.79916,-20.366181 v 8.089844 q -0.78876,-0.444942 -1.43595,-0.444942 -2.06291,0 -2.06291,3.1550392 V 0 h -7.564 v -11.022412 q 0,-4.368515 2.3865,-6.957265 2.3865,-2.608974 6.37075,-2.608974 0.88989,0 2.30561,0.22247 z"
               style="font-size:41.42px;font-family:Bauhaus93, 'Bauhaus 93';fill:#1b1c51"
               id="path1041" />
            <path
               d="m 157.02386,-19.88079 h 7.56401 v 11.3864544 q 0,1.7190918 1.43594,1.7190918 1.41573,0 1.41573,-1.7190918 V -19.88079 h 7.564 v 11.2448822 q 0,3.923574 -2.60897,6.6336716 -2.60898,2.68987289 -6.39098,2.68987289 -4.30784,0 -6.93704,-3.13481429 -2.04269,-2.4471777 -2.04269,-6.7954685 z"
               style="font-size:41.42px;font-family:Bauhaus93, 'Bauhaus 93';fill:#1b1c51"
               id="path1043" />
            <path
               d="m 186.53157,7.4628805 h -7.56401 V -9.3639937 q 0,-4.6314353 2.42696,-7.5437793 1.3955,-1.678642 3.5393,-2.669648 2.16404,-0.991006 4.42919,-0.991006 4.51009,0 7.60446,3.033691 3.09436,3.033692 3.09436,7.442656 0,4.2876174 -3.07414,7.4022071 -3.07414,3.11458968 -7.28086,3.11458968 -0.68764,0 -2.02246,-0.14157226 V -8.0493942 q 0.93033,0.7483105 1.86066,0.7483105 1.17303,0 2.00224,-0.8696581 0.84943,-0.8696582 0.84943,-2.0629102 0,-1.193252 -0.86965,-2.022461 -0.86966,-0.849433 -2.08314,-0.849433 -2.91234,0 -2.91234,4.0246968 z"
               style="font-size:41.42px;font-family:Bauhaus93, 'Bauhaus 93';fill:#1b1c51"
               id="path1045" />
            <path
               d="m 214.58309,-7.5640036 v 7.82692351 q -0.93033,0.16179687 -1.69886,0.16179687 -4.55054,0 -7.58423,-2.99324208 -3.03369,-2.993242 -3.03369,-7.5033297 0,-4.38874 3.05391,-7.442656 3.07414,-3.053916 7.46288,-3.053916 4.89436,0 7.70558,2.871895 2.83145,2.851669 2.83145,7.8066985 V 0 h -7.56401 v -9.3437691 q 0,-1.5977439 -0.78876,-2.5483009 -0.76853,-0.950556 -2.08313,-0.950556 -1.19325,0 -2.06291,0.869658 -0.86966,0.869658 -0.86966,2.0629098 0,1.2539258 0.78876,2.0629101 0.78876,0.8089843 2.00224,0.8089843 0.991,0 1.84043,-0.5258398 z"
               style="font-size:41.42px;font-family:Bauhaus93, 'Bauhaus 93';fill:#1b1c51"
               id="path1047" />
            <path
               d="m 255.39636,0 h -7.564 v -10.880839 q 0,-1.253926 -0.26292,-1.739317 -0.26292,-0.48539 -0.95056,-0.48539 -1.27415,0 -1.27415,2.244931 V 0 h -7.564 v -10.880839 q 0,-1.253926 -0.28315,-1.739317 -0.26292,-0.48539 -0.95056,-0.48539 -1.25392,0 -1.25392,2.244931 V 0 h -7.56401 v -12.41791 q 0,-3.397734 2.28539,-5.764013 2.28538,-2.386504 5.54154,-2.386504 3.35728,0 6.02693,2.831445 2.97302,-2.831445 5.94604,-2.831445 3.782,0 6.06738,2.750547 1.79999,2.143808 1.79999,6.249404 z"
               style="font-size:41.42px;font-family:Bauhaus93, 'Bauhaus 93';fill:#1b1c51"
               id="path1049" />
          </g>
        </g>
        <g
           aria-label="Aadhyarupam"
           transform="translate(0,34.53)"
           id="text30"
           style="font-size:41.42px;font-family:Bauhaus93, 'Bauhaus 93';fill:#ed1968"
           class="cls-3">
          <path
             d="m 12.781953,-13.853857 v 7.2808592 h -2.36628 V 0 H 2.2044823 v -17.55496 q 0,-5.096601 2.7707714,-7.907822 2.790996,-2.831445 7.8269233,-2.831445 4.853906,0 7.179736,2.568525 2.32583,2.548301 2.32583,7.887597 V 0 h -8.211191 v -17.29204 q 0,-1.617969 -0.384267,-2.244932 -0.384268,-0.626963 -1.375274,-0.626963 -1.921338,0 -1.921338,2.871895 v 3.438183 z"
             style="font-size:41.42px;font-family:Bauhaus93, 'Bauhaus 93';fill:#ed1968"
             id="path1052" />
          <path
             d="m 37.918916,-7.5640036 v 7.82692351 q -0.930332,0.16179687 -1.698867,0.16179687 -4.550537,0 -7.584229,-2.99324208 -3.033691,-2.993242 -3.033691,-7.5033297 0,-4.38874 3.053916,-7.442656 3.07414,-3.053916 7.46288,-3.053916 4.894356,0 7.705576,2.871895 2.831446,2.851669 2.831446,7.8066985 V 0 h -7.564004 v -9.3437691 q 0,-1.5977439 -0.78876,-2.5483009 -0.768535,-0.950556 -2.083134,-0.950556 -1.193252,0 -2.062911,0.869658 -0.869658,0.869658 -0.869658,2.0629098 0,1.2539258 0.78876,2.0629101 0.78876,0.8089843 2.002236,0.8089843 0.991006,0 1.84044,-0.5258398 z"
             style="fill:#f26531"
             id="path1054" />
          <path
             d="m 63.492391,-27.606591 h 7.564003 v 16.80665 q 0,4.6314354 -2.426953,7.543779 -1.395498,1.6786425 -3.559531,2.66964835 -2.143808,0.99100582 -4.408964,0.99100582 -4.510088,0 -7.604453,-3.03369127 -3.094365,-3.0336913 -3.094365,-7.4426559 0,-4.267392 3.07414,-7.381982 3.074141,-3.11459 7.280859,-3.11459 0.667412,0 2.022461,0.121348 v 8.332539 q -0.930332,-0.728086 -1.860664,-0.728086 -1.173027,0 -2.022461,0.869658 -0.829209,0.849433 -0.829209,2.0629098 0,1.1730273 0.869659,2.0224609 0.869658,0.8292089 2.083134,0.8292089 2.912344,0 2.912344,-4.0246966 z"
             style="fill:#005fae"
             id="path1056" />
          <path
             d="m 82.598488,-27.606591 v 8.433662 q 1.921338,-1.395498 3.842675,-1.395498 2.912344,0 4.611211,2.103359 1.719092,2.10336 1.719092,5.683115 V 0 h -7.564004 v -10.658369 q 0,-1.294375 -0.283144,-1.739316 -0.26292,-0.444941 -1.05168,-0.444941 -1.27415,0 -1.27415,1.880888 V 0 h -7.564004 v -27.606591 z"
             style="letter-spacing:0em;fill:#ffde17"
             id="path1058" />
          <path
             d="M 99.79346,8.8381539 V 2.2651561 q 1.53707,0.6471875 2.68987,0.6471875 3.68088,0 4.77301,-4.1460447 -1.98201,1.17302727 -3.88312,1.17302727 -2.81122,0 -4.631439,-2.08313467 -1.820215,-2.1033593 -1.820215,-5.3392966 V -20.163935 h 7.564004 v 10.8403905 q 0,1.7999901 1.49662,1.7999901 1.43595,0 1.43595,-1.9820116 v -10.658369 h 7.564 v 17.9999019 q 0,5.0359275 -2.83144,8.1302926 -3.37751,3.6808787 -8.17075,3.6808787 -2.10336,0 -4.18649,-0.8089843 z"
             style="letter-spacing:0em"
             id="path1060" />
          <path
             d="m 130.59892,-7.5640036 v 7.82692351 q -0.93033,0.16179687 -1.69887,0.16179687 -4.55054,0 -7.58423,-2.99324208 -3.03369,-2.993242 -3.03369,-7.5033297 0,-4.38874 3.05392,-7.442656 3.07414,-3.053916 7.46288,-3.053916 4.89435,0 7.70557,2.871895 2.83145,2.851669 2.83145,7.8066985 V 0 h -7.564 v -9.3437691 q 0,-1.5977439 -0.78876,-2.5483009 -0.76854,-0.950556 -2.08314,-0.950556 -1.19325,0 -2.06291,0.869658 -0.86966,0.869658 -0.86966,2.0629098 0,1.2539258 0.78876,2.0629101 0.78876,0.8089843 2.00224,0.8089843 0.991,0 1.84044,-0.5258398 z"
             style="fill:#f26531"
             id="path1062" />
          <path
             d="m 154.80734,-20.366181 v 8.089844 q -0.78876,-0.444942 -1.43595,-0.444942 -2.06291,0 -2.06291,3.1550392 V 0 h -7.564 v -11.022412 q 0,-4.368515 2.3865,-6.957265 2.3865,-2.608974 6.37075,-2.608974 0.88988,0 2.30561,0.22247 z"
             style="fill:#005fae"
             id="path1064" />
          <path
             d="m 157.03448,-19.88079 h 7.56401 v 11.3864544 q 0,1.7190918 1.43594,1.7190918 1.41573,0 1.41573,-1.7190918 V -19.88079 h 7.564 v 11.2448822 q 0,3.923574 -2.60897,6.6336716 -2.60898,2.68987289 -6.39098,2.68987289 -4.30784,0 -6.93704,-3.13481429 -2.04269,-2.4471777 -2.04269,-6.7954685 z"
             style="fill:#ffde17"
             id="path1066" />
          <path
             d="m 186.54355,7.4628805 h -7.56401 V -9.3639937 q 0,-4.6314353 2.42696,-7.5437793 1.39549,-1.678642 3.5393,-2.669648 2.16403,-0.991006 4.42919,-0.991006 4.51009,0 7.60445,3.033691 3.09437,3.033692 3.09437,7.442656 0,4.2876174 -3.07414,7.4022071 -3.07414,3.11458968 -7.28086,3.11458968 -0.68764,0 -2.02246,-0.14157226 V -8.0493942 q 0.93033,0.7483105 1.86066,0.7483105 1.17303,0 2.00224,-0.8696581 0.84943,-0.8696582 0.84943,-2.0629102 0,-1.193252 -0.86966,-2.022461 -0.86965,-0.849433 -2.08313,-0.849433 -2.91234,0 -2.91234,4.0246968 z"
             style="fill:#005fae"
             id="path1068" />
          <path
             d="m 214.59892,-7.5640036 v 7.82692351 q -0.93033,0.16179687 -1.69887,0.16179687 -4.55054,0 -7.58423,-2.99324208 -3.03369,-2.993242 -3.03369,-7.5033297 0,-4.38874 3.05392,-7.442656 3.07414,-3.053916 7.46288,-3.053916 4.89435,0 7.70557,2.871895 2.83145,2.851669 2.83145,7.8066985 V 0 h -7.564 v -9.3437691 q 0,-1.5977439 -0.78876,-2.5483009 -0.76854,-0.950556 -2.08314,-0.950556 -1.19325,0 -2.06291,0.869658 -0.86966,0.869658 -0.86966,2.0629098 0,1.2539258 0.78876,2.0629101 0.78876,0.8089843 2.00224,0.8089843 0.991,0 1.84044,-0.5258398 z"
             style="fill:#f26531"
             id="path1070" />
          <path
             d="m 255.41174,0 h -7.564 v -10.880839 q 0,-1.253926 -0.26292,-1.739317 -0.26292,-0.48539 -0.95056,-0.48539 -1.27415,0 -1.27415,2.244931 V 0 h -7.564 v -10.880839 q 0,-1.253926 -0.28315,-1.739317 -0.26292,-0.48539 -0.95056,-0.48539 -1.25392,0 -1.25392,2.244931 V 0 h -7.564 v -12.41791 q 0,-3.397734 2.28538,-5.764013 2.28538,-2.386504 5.54154,-2.386504 3.35728,0 6.02693,2.831445 2.97302,-2.831445 5.94604,-2.831445 3.782,0 6.06738,2.750547 1.79999,2.143808 1.79999,6.249404 z"
             id="path1072" />
        </g>
      </g>
      <g
         id="g40"
         transform="translate(4.0835649,-4.5134139)"
         inkscape:export-xdpi="96"
         inkscape:export-ydpi="96">
        <path
           id="ellipse36"
           style="fill:#f26531;stroke-width:0.863929"
           d="m 278.75702,13.87 a 8.5385189,7.6399999 0 0 1 -8.53851,7.64 8.5385189,7.6399999 0 0 1 -8.53852,-7.64 8.5385189,7.6399999 0 0 1 8.53852,-7.64 8.5385189,7.6399999 0 0 1 8.53851,7.64 z"
           class="cls-4" />
        <g
           aria-label="R"
           id="text51"
           style="font-style:normal;font-weight:normal;font-size:13.3333px;line-height:1.25;font-family:sans-serif;fill:#ffffff;fill-opacity:1;stroke:none">
          <path
             d="M 266.19336,18.483505 V 8.9392585 h 4.05598 q 1.52994,0 2.22004,0.260416 0.69662,0.2539057 1.11328,0.9114565 0.41667,0.65755 0.41667,1.503902 0,1.074216 -0.63151,1.777339 -0.63151,0.696613 -1.88802,0.878904 0.625,0.364583 1.02865,0.80078 0.41015,0.436196 1.10025,1.549475 l 1.16536,1.861974 h -2.30468 l -1.39322,-2.076817 q -0.74219,-1.113279 -1.01563,-1.399736 -0.27343,-0.292968 -0.57942,-0.397135 -0.30599,-0.110677 -0.97005,-0.110677 h -0.39062 v 3.984365 z m 1.92708,-5.507798 h 1.42577 q 1.38672,0 1.73177,-0.117188 0.34505,-0.117187 0.54036,-0.403644 0.19531,-0.286458 0.19531,-0.716144 0,-0.48177 -0.26041,-0.774738 -0.25391,-0.299478 -0.72266,-0.377603 -0.23437,-0.03255 -1.40624,-0.03255 h -1.5039 z"
             style="font-style:normal;font-variant:normal;font-weight:bold;font-stretch:normal;font-size:13.3333px;font-family:Arial;-inkscape-font-specification:'Arial Bold';fill:#ffffff"
             id="path1026" />
        </g>
      </g>
      <g
         aria-label="elements"
         id="text55"
         style="font-style:normal;font-weight:normal;font-size:24px;line-height:1.25;font-family:sans-serif;fill:#000000;fill-opacity:1;stroke:none">
        <path
           d="m 153.20381,54.308491 h 4.51172 q -0.082,-1.183594 -0.65625,-1.769531 -0.57422,-0.597657 -1.65234,-0.597657 -0.9961,0 -1.58203,0.632813 -0.57422,0.621094 -0.6211,1.734375 z m 4.24219,4.03125 h 4.85156 q -0.52734,2.085937 -2.32031,3.164062 -1.78125,1.066407 -4.71094,1.066407 -3.28125,0 -5.21484,-1.816407 -1.92188,-1.828125 -1.92188,-4.910156 0,-3.210937 1.96875,-5.0625 1.96875,-1.863281 5.35547,-1.863281 3.39844,0 5.32031,2.027344 1.9336,2.015625 1.9336,5.601562 v 0.304688 l -9.50391,0.01172 q 0.0352,1.21875 0.64453,1.886719 0.60938,0.65625 1.69922,0.65625 0.73828,0 1.23047,-0.269531 0.49219,-0.28125 0.66797,-0.796875 z"
           style="font-style:normal;font-variant:normal;font-weight:normal;font-stretch:normal;font-size:24px;font-family:'Swis721 Blk BT';-inkscape-font-specification:'Swis721 Blk BT'"
           id="path1008" />
        <path
           d="M 164.91084,62.113178 V 44.85146 h 5.10938 v 17.261718 z"
           style="font-style:normal;font-variant:normal;font-weight:normal;font-stretch:normal;font-size:24px;font-family:'Swis721 Blk BT';-inkscape-font-specification:'Swis721 Blk BT'"
           id="path1010" />
        <path
           d="m 177.29756,54.308491 h 4.51172 q -0.082,-1.183594 -0.65625,-1.769531 -0.57422,-0.597657 -1.65234,-0.597657 -0.9961,0 -1.58203,0.632813 -0.57422,0.621094 -0.6211,1.734375 z m 4.24219,4.03125 h 4.85156 q -0.52734,2.085937 -2.32031,3.164062 -1.78125,1.066407 -4.71094,1.066407 -3.28125,0 -5.21484,-1.816407 -1.92188,-1.828125 -1.92188,-4.910156 0,-3.210937 1.96875,-5.0625 1.96875,-1.863281 5.35547,-1.863281 3.39844,0 5.32031,2.027344 1.9336,2.015625 1.9336,5.601562 v 0.304688 l -9.50391,0.01172 q 0.0352,1.21875 0.64453,1.886719 0.60938,0.65625 1.69922,0.65625 0.73828,0 1.23047,-0.269531 0.49219,-0.28125 0.66797,-0.796875 z"
           style="font-style:normal;font-variant:normal;font-weight:normal;font-stretch:normal;font-size:24px;font-family:'Swis721 Blk BT';-inkscape-font-specification:'Swis721 Blk BT'"
           id="path1012" />
        <path
           d="M 188.88741,62.113178 V 49.374897 h 4.60546 v 1.863281 q 0.84375,-1.125 1.89844,-1.664062 1.05469,-0.539063 2.42578,-0.539063 1.25391,0 2.15625,0.527344 0.91407,0.527344 1.62891,1.675781 0.92578,-1.148437 2.02734,-1.6875 1.10157,-0.539062 2.48438,-0.539062 2.25,0 3.49219,1.160156 1.24218,1.160156 1.24218,3.257813 v 8.683593 h -4.99218 v -6.820312 q 0,-1.195313 -0.41016,-1.734375 -0.39844,-0.539063 -1.30078,-0.539063 -0.92578,0 -1.35938,0.5625 -0.43359,0.5625 -0.43359,1.757813 v 6.773437 h -4.96875 v -6.644531 q 0,-1.3125 -0.42188,-1.875 -0.41015,-0.574219 -1.35937,-0.574219 -0.84375,0 -1.28906,0.574219 -0.4336,0.574219 -0.4336,1.675781 v 6.84375 z"
           style="font-style:normal;font-variant:normal;font-weight:normal;font-stretch:normal;font-size:24px;font-family:'Swis721 Blk BT';-inkscape-font-specification:'Swis721 Blk BT'"
           id="path1014" />
        <path
           d="m 217.85616,54.308491 h 4.51171 q -0.082,-1.183594 -0.65625,-1.769531 -0.57421,-0.597657 -1.65234,-0.597657 -0.99609,0 -1.58203,0.632813 -0.57422,0.621094 -0.62109,1.734375 z m 4.24218,4.03125 h 4.85157 q -0.52735,2.085937 -2.32032,3.164062 -1.78125,1.066407 -4.71093,1.066407 -3.28125,0 -5.21485,-1.816407 -1.92187,-1.828125 -1.92187,-4.910156 0,-3.210937 1.96875,-5.0625 1.96875,-1.863281 5.35547,-1.863281 3.39843,0 5.32031,2.027344 1.93359,2.015625 1.93359,5.601562 v 0.304688 l -9.5039,0.01172 q 0.0352,1.21875 0.64453,1.886719 0.60937,0.65625 1.69922,0.65625 0.73828,0 1.23046,-0.269531 0.49219,-0.28125 0.66797,-0.796875 z"
           style="font-style:normal;font-variant:normal;font-weight:normal;font-stretch:normal;font-size:24px;font-family:'Swis721 Blk BT';-inkscape-font-specification:'Swis721 Blk BT'"
           id="path1016" />
        <path
           d="M 229.446,62.113178 V 49.374897 h 4.60547 v 1.863281 q 0.89062,-1.113281 1.98047,-1.652343 1.10156,-0.550782 2.48437,-0.550782 1.16016,0 2.07422,0.386719 0.91406,0.386719 1.54688,1.148438 0.57421,0.691406 0.80859,1.6875 0.24609,0.984375 0.24609,3.234375 v 6.621093 h -5.0625 v -6.597656 q 0,-1.453125 -0.38672,-1.992187 -0.38671,-0.550782 -1.33593,-0.550782 -0.96094,0 -1.42969,0.632813 -0.46875,0.632812 -0.46875,1.933594 v 6.574218 z"
           style="font-style:normal;font-variant:normal;font-weight:normal;font-stretch:normal;font-size:24px;font-family:'Swis721 Blk BT';-inkscape-font-specification:'Swis721 Blk BT'"
           id="path1018" />
        <path
           d="m 251.68819,57.390522 q 0,0.644531 0.375,0.914063 0.375,0.257812 1.33593,0.257812 0.28125,0 0.42188,0 0.15234,-0.01172 0.29297,-0.02344 v 3.667968 q -0.9375,0.05859 -1.71094,0.08203 -0.76172,0.03516 -1.42969,0.03516 -2.41406,0 -3.375,-0.808594 -0.94922,-0.808594 -0.94922,-2.835937 v -6.386719 h -1.79296 v -2.917969 h 1.79296 v -3.9375 h 5.03907 v 3.9375 h 2.3789 v 2.917969 h -2.3789 z"
           style="font-style:normal;font-variant:normal;font-weight:normal;font-stretch:normal;font-size:24px;font-family:'Swis721 Blk BT';-inkscape-font-specification:'Swis721 Blk BT'"
           id="path1020" />
        <path
           d="m 255.5085,58.105366 h 4.92187 q 0,0.808594 0.41016,1.207031 0.42188,0.398438 1.25391,0.398438 0.79687,0 1.21875,-0.269532 0.43359,-0.269531 0.43359,-0.785156 0,-0.855469 -1.88672,-1.265625 -0.16406,-0.03516 -0.25781,-0.05859 -3.57422,-0.761718 -4.66406,-1.640625 -1.08985,-0.878906 -1.08985,-2.578125 0,-2.050781 1.59375,-3.117187 1.60547,-1.078125 4.67578,-1.078125 2.84766,0 4.40625,1.007812 1.57032,1.007813 1.80469,3 h -4.55859 q -0.0586,-0.574218 -0.50391,-0.914062 -0.43359,-0.339844 -1.10156,-0.339844 -0.66797,0 -1.01953,0.234375 -0.35156,0.222656 -0.35156,0.65625 0,0.761719 1.72265,1.125 0.45703,0.09375 0.69141,0.140625 3.46875,0.796875 4.51172,1.699219 1.04297,0.890625 1.04297,2.625 0,2.191406 -1.71094,3.304687 -1.69922,1.113282 -5.03906,1.113282 -3.09375,0 -4.72266,-1.113282 -1.61719,-1.113281 -1.78125,-3.351562 z"
           style="font-style:normal;font-variant:normal;font-weight:normal;font-stretch:normal;font-size:24px;font-family:'Swis721 Blk BT';-inkscape-font-specification:'Swis721 Blk BT'"
           id="path1022" />
      </g>
    </g>
  </g>
</svg>
