<?xml version="1.0" encoding="UTF-8"?>
<svg data-name="Layer 1" version="1.1" viewBox="0 0 284.56 70.62" xmlns="http://www.w3.org/2000/svg" xmlns:cc="http://creativecommons.org/ns#" xmlns:dc="http://purl.org/dc/elements/1.1/" xmlns:rdf="http://www.w3.org/1999/02/22-rdf-syntax-ns#">
 <metadata>
  <rdf:RDF>
   <cc:Work rdf:about="">
    <dc:format>image/svg+xml</dc:format>
    <dc:type rdf:resource="http://purl.org/dc/dcmitype/StillImage"/>
    <dc:title/>
   </cc:Work>
  </rdf:RDF>
 </metadata>
 <defs>
  <style>.cls-1 {
        opacity: 0.5;
      }

      .cls-2, .cls-3 {
        font-size: 41.42px;
        font-family: Bauhaus93, "Bauhaus 93";
      }

      .cls-2 {
        fill: #1b1c51;
      }

      .cls-3 {
        fill: #ed1968;
      }

      .cls-4, .cls-9 {
        fill: #f26531;
      }

      .cls-5 {
        fill: #005fae;
      }

      .cls-6, .cls-8 {
        fill: #ffde17;
      }

      .cls-6 {
        letter-spacing: 0em;
      }

      .cls-7 {
        letter-spacing: 0em;
      }

      .cls-9 {
        font-size: 20.71px;
        font-family: VladimirScript, Vladimir Script;
      }

      .cls-10 {
        font-size: 10.36px;
        fill: #fff;
        font-family: Calibri-Bold, Calibri;
        font-weight: 700;
      }</style>
 </defs>
 <g transform="translate(-6.2425 1.4025)" opacity=".998">
  <g transform="translate(12)">
   <g class="cls-1">
    <g class="cls-2" transform="translate(1.5,36.03)" fill="#1b1c51" aria-label="Aadhyarupam">
     <path d="m12.782-13.854v7.2809h-2.3663v6.573h-8.2112v-17.555q0-5.0966 2.7708-7.9078 2.791-2.8314 7.8269-2.8314 4.8539 0 7.1797 2.5685 2.3258 2.5483 2.3258 7.8876v17.838h-8.2112v-17.292q0-1.618-0.38427-2.2449-0.38427-0.62696-1.3753-0.62696-1.9213 0-1.9213 2.8719v3.4382z"/>
     <path d="m37.921-7.564v7.8269q-0.93033 0.1618-1.6989 0.1618-4.5505 0-7.5842-2.9932-3.0337-2.9932-3.0337-7.5033 0-4.3887 3.0539-7.4427 3.0741-3.0539 7.4629-3.0539 4.8944 0 7.7056 2.8719 2.8314 2.8517 2.8314 7.8067v9.8898h-7.564v-9.3438q0-1.5977-0.78876-2.5483-0.76854-0.95056-2.0831-0.95056-1.1933 0-2.0629 0.86966-0.86966 0.86966-0.86966 2.0629 0 1.2539 0.78876 2.0629t2.0022 0.80898q0.99101 0 1.8404-0.52584z"/>
     <path d="m63.485-27.607h7.564v16.807q0 4.6314-2.427 7.5438-1.3955 1.6786-3.5595 2.6696-2.1438 0.99101-4.409 0.99101-4.5101 0-7.6045-3.0337-3.0944-3.0337-3.0944-7.4427 0-4.2674 3.0741-7.382 3.0741-3.1146 7.2809-3.1146 0.66741 0 2.0225 0.12135v8.3325q-0.93033-0.72809-1.8607-0.72809-1.173 0-2.0225 0.86966-0.82921 0.84943-0.82921 2.0629 0 1.173 0.86966 2.0225 0.86966 0.82921 2.0831 0.82921 2.9123 0 2.9123-4.0247z"/>
     <path d="m82.597-27.607v8.4337q1.9213-1.3955 3.8427-1.3955 2.9123 0 4.6112 2.1034 1.7191 2.1034 1.7191 5.6831v12.782h-7.564v-10.658q0-1.2944-0.28314-1.7393-0.26292-0.44494-1.0517-0.44494-1.2742 0-1.2742 1.8809v10.962h-7.564v-27.607z"/>
     <path d="m99.788 8.8382v-6.573q1.5371 0.64719 2.6899 0.64719 3.6809 0 4.773-4.146-1.982 1.173-3.8831 1.173-2.8112 0-4.6314-2.0831-1.8202-2.1034-1.8202-5.3393v-12.681h7.564v10.84q0 1.8 1.4966 1.8 1.436 0 1.436-1.982v-10.658h7.564v18q0 5.0359-2.8314 8.1303-3.3775 3.6809-8.1707 3.6809-2.1034 0-4.1865-0.80898z"/>
     <path d="m130.59-7.564v7.8269q-0.93034 0.1618-1.6989 0.1618-4.5505 0-7.5842-2.9932-3.0337-2.9932-3.0337-7.5033 0-4.3887 3.0539-7.4427 3.0741-3.0539 7.4629-3.0539 4.8944 0 7.7056 2.8719 2.8314 2.8517 2.8314 7.8067v9.8898h-7.564v-9.3438q0-1.5977-0.78876-2.5483-0.76853-0.95056-2.0831-0.95056-1.1932 0-2.0629 0.86966t-0.86966 2.0629q0 1.2539 0.78876 2.0629t2.0022 0.80898q0.991 0 1.8404-0.52584z"/>
     <path d="m154.8-20.366v8.0898q-0.78876-0.44494-1.436-0.44494-2.0629 0-2.0629 3.155v9.5662h-7.564v-11.022q0-4.3685 2.3865-6.9573 2.3865-2.609 6.3708-2.609 0.88989 0 2.3056 0.22247z"/>
     <path d="m157.02-19.881h7.564v11.386q0 1.7191 1.4359 1.7191 1.4157 0 1.4157-1.7191v-11.386h7.564v11.245q0 3.9236-2.609 6.6337-2.609 2.6899-6.391 2.6899-4.3078 0-6.937-3.1348-2.0427-2.4472-2.0427-6.7955z"/>
     <path d="m186.53 7.4629h-7.564v-16.827q0-4.6314 2.427-7.5438 1.3955-1.6786 3.5393-2.6696 2.164-0.99101 4.4292-0.99101 4.5101 0 7.6045 3.0337 3.0944 3.0337 3.0944 7.4427 0 4.2876-3.0741 7.4022-3.0741 3.1146-7.2809 3.1146-0.68764 0-2.0225-0.14157v-8.3325q0.93033 0.74831 1.8607 0.74831 1.173 0 2.0022-0.86966 0.84943-0.86966 0.84943-2.0629t-0.86965-2.0225q-0.86966-0.84943-2.0831-0.84943-2.9123 0-2.9123 4.0247z"/>
     <path d="m214.58-7.564v7.8269q-0.93033 0.1618-1.6989 0.1618-4.5505 0-7.5842-2.9932-3.0337-2.9932-3.0337-7.5033 0-4.3887 3.0539-7.4427 3.0741-3.0539 7.4629-3.0539 4.8944 0 7.7056 2.8719 2.8314 2.8517 2.8314 7.8067v9.8898h-7.564v-9.3438q0-1.5977-0.78876-2.5483-0.76853-0.95056-2.0831-0.95056-1.1932 0-2.0629 0.86966t-0.86966 2.0629q0 1.2539 0.78876 2.0629t2.0022 0.80898q0.991 0 1.8404-0.52584z"/>
     <path d="m255.4 0h-7.564v-10.881q0-1.2539-0.26292-1.7393-0.26292-0.48539-0.95056-0.48539-1.2742 0-1.2742 2.2449v10.861h-7.564v-10.881q0-1.2539-0.28315-1.7393-0.26292-0.48539-0.95056-0.48539-1.2539 0-1.2539 2.2449v10.861h-7.564v-12.418q0-3.3977 2.2854-5.764 2.2854-2.3865 5.5415-2.3865 3.3573 0 6.0269 2.8314 2.973-2.8314 5.946-2.8314 3.782 0 6.0674 2.7505 1.8 2.1438 1.8 6.2494z"/>
    </g>
   </g>
   <g class="cls-3" transform="translate(0,34.53)" fill="#ed1968" aria-label="Aadhyarupam">
    <path d="m12.782-13.854v7.2809h-2.3663v6.573h-8.2112v-17.555q0-5.0966 2.7708-7.9078 2.791-2.8314 7.8269-2.8314 4.8539 0 7.1797 2.5685 2.3258 2.5483 2.3258 7.8876v17.838h-8.2112v-17.292q0-1.618-0.38427-2.2449-0.38427-0.62696-1.3753-0.62696-1.9213 0-1.9213 2.8719v3.4382z" fill="#ed1968"/>
    <path d="m37.919-7.564v7.8269q-0.93033 0.1618-1.6989 0.1618-4.5505 0-7.5842-2.9932-3.0337-2.9932-3.0337-7.5033 0-4.3887 3.0539-7.4427 3.0741-3.0539 7.4629-3.0539 4.8944 0 7.7056 2.8719 2.8314 2.8517 2.8314 7.8067v9.8898h-7.564v-9.3438q0-1.5977-0.78876-2.5483-0.76854-0.95056-2.0831-0.95056-1.1933 0-2.0629 0.86966-0.86966 0.86966-0.86966 2.0629 0 1.2539 0.78876 2.0629t2.0022 0.80898q0.99101 0 1.8404-0.52584z" fill="#f26531"/>
    <path d="m63.492-27.607h7.564v16.807q0 4.6314-2.427 7.5438-1.3955 1.6786-3.5595 2.6696-2.1438 0.99101-4.409 0.99101-4.5101 0-7.6045-3.0337-3.0944-3.0337-3.0944-7.4427 0-4.2674 3.0741-7.382 3.0741-3.1146 7.2809-3.1146 0.66741 0 2.0225 0.12135v8.3325q-0.93033-0.72809-1.8607-0.72809-1.173 0-2.0225 0.86966-0.82921 0.84943-0.82921 2.0629 0 1.173 0.86966 2.0225 0.86966 0.82921 2.0831 0.82921 2.9123 0 2.9123-4.0247z" fill="#005fae"/>
    <path d="m82.598-27.607v8.4337q1.9213-1.3955 3.8427-1.3955 2.9123 0 4.6112 2.1034 1.7191 2.1034 1.7191 5.6831v12.782h-7.564v-10.658q0-1.2944-0.28314-1.7393-0.26292-0.44494-1.0517-0.44494-1.2742 0-1.2742 1.8809v10.962h-7.564v-27.607z" fill="#ffde17"/>
    <path d="m99.793 8.8382v-6.573q1.5371 0.64719 2.6899 0.64719 3.6809 0 4.773-4.146-1.982 1.173-3.8831 1.173-2.8112 0-4.6314-2.0831-1.8202-2.1034-1.8202-5.3393v-12.681h7.564v10.84q0 1.8 1.4966 1.8 1.436 0 1.436-1.982v-10.658h7.564v18q0 5.0359-2.8314 8.1303-3.3775 3.6809-8.1708 3.6809-2.1034 0-4.1865-0.80898z"/>
    <path d="m130.6-7.564v7.8269q-0.93033 0.1618-1.6989 0.1618-4.5505 0-7.5842-2.9932-3.0337-2.9932-3.0337-7.5033 0-4.3887 3.0539-7.4427 3.0741-3.0539 7.4629-3.0539 4.8944 0 7.7056 2.8719 2.8314 2.8517 2.8314 7.8067v9.8898h-7.564v-9.3438q0-1.5977-0.78876-2.5483-0.76854-0.95056-2.0831-0.95056-1.1932 0-2.0629 0.86966t-0.86966 2.0629q0 1.2539 0.78876 2.0629t2.0022 0.80898q0.991 0 1.8404-0.52584z" fill="#f26531"/>
    <path d="m154.81-20.366v8.0898q-0.78876-0.44494-1.436-0.44494-2.0629 0-2.0629 3.155v9.5662h-7.564v-11.022q0-4.3685 2.3865-6.9573 2.3865-2.609 6.3708-2.609 0.88988 0 2.3056 0.22247z" fill="#005fae"/>
    <path d="m157.03-19.881h7.564v11.386q0 1.7191 1.4359 1.7191 1.4157 0 1.4157-1.7191v-11.386h7.564v11.245q0 3.9236-2.609 6.6337-2.609 2.6899-6.391 2.6899-4.3078 0-6.937-3.1348-2.0427-2.4472-2.0427-6.7955z" fill="#ffde17"/>
    <path d="m186.54 7.4629h-7.564v-16.827q0-4.6314 2.427-7.5438 1.3955-1.6786 3.5393-2.6696 2.164-0.99101 4.4292-0.99101 4.5101 0 7.6044 3.0337 3.0944 3.0337 3.0944 7.4427 0 4.2876-3.0741 7.4022-3.0741 3.1146-7.2809 3.1146-0.68764 0-2.0225-0.14157v-8.3325q0.93033 0.74831 1.8607 0.74831 1.173 0 2.0022-0.86966 0.84943-0.86966 0.84943-2.0629t-0.86966-2.0225q-0.86965-0.84943-2.0831-0.84943-2.9123 0-2.9123 4.0247z" fill="#005fae"/>
    <path d="m214.6-7.564v7.8269q-0.93033 0.1618-1.6989 0.1618-4.5505 0-7.5842-2.9932-3.0337-2.9932-3.0337-7.5033 0-4.3887 3.0539-7.4427 3.0741-3.0539 7.4629-3.0539 4.8944 0 7.7056 2.8719 2.8314 2.8517 2.8314 7.8067v9.8898h-7.564v-9.3438q0-1.5977-0.78876-2.5483-0.76854-0.95056-2.0831-0.95056-1.1932 0-2.0629 0.86966t-0.86966 2.0629q0 1.2539 0.78876 2.0629t2.0022 0.80898q0.991 0 1.8404-0.52584z" fill="#f26531"/>
    <path d="m255.41 0h-7.564v-10.881q0-1.2539-0.26292-1.7393-0.26292-0.48539-0.95056-0.48539-1.2742 0-1.2742 2.2449v10.861h-7.564v-10.881q0-1.2539-0.28315-1.7393-0.26292-0.48539-0.95056-0.48539-1.2539 0-1.2539 2.2449v10.861h-7.564v-12.418q0-3.3977 2.2854-5.764 2.2854-2.3865 5.5415-2.3865 3.3573 0 6.0269 2.8314 2.973-2.8314 5.946-2.8314 3.782 0 6.0674 2.7505 1.8 2.1438 1.8 6.2494z"/>
   </g>
  </g>
  <g class="cls-9" fill="#f26531" aria-label="Spreading Joy, Igniting Creativity">
   <path d="m29.291 54.297q0 1.082-1.5977 2.5382-1.6685 1.527-4.0449 2.3764-2.255 0.79887-4.6213 0.79887-3.2157 0-3.2157-1.9314 0-1.1528 1.8101-2.1034 1.5775-0.83932 2.8719-0.83932 0.4146 0 0.4146 0.25281 0 0.17191-0.42472 0.23258-1.2337 0.19213-2.3865 0.70786-1.618 0.70786-1.618 1.5876 0 1.0719 2.4977 1.0719 2.0326 0 4.3584-0.80898 2.3764-0.82921 3.8932-2.1135 1.4764-1.2539 1.4764-1.8809 0-0.61685-1.9921-0.84943-3.2966-0.38427-3.691-0.47528-1.9921-0.48539-1.9921-1.7191 0-1.5674 2.3359-2.9831 1.9112-1.1629 4.864-1.9618 2.5888-0.69775 4.146-0.69775 1.9921 0 1.9921 1.2337 0 1.0618-1.8506 2.4977-1.7899 1.3854-2.9225 1.3854-0.91011 0-0.91011-0.62696 0-0.52584 1.0416-1.2337 0.99101-0.66741 1.5472-0.66741 0.19213 0 0.19213 0.12135l-1.0416 0.56629q-1.0416 0.56629-1.082 0.82921 0.05056 0.07079 0.17191 0.07079 0.72809 0 2.3966-0.97078 1.7697-1.0315 1.7697-1.6989 0-0.58651-1.4157-0.58651-1.618 0-4.5606 0.93033-1.982 0.62696-3.4786 1.3348-2.5888 1.2135-2.5888 2.1944 0 0.62696 1.6382 0.93033l3.246 0.42472q1.9011 0.28314 2.3157 0.82921 0.45505 0.61685 0.45505 1.2337z"/>
   <path d="m33.224 54.894q-1.3348 1.1831-2.9629 2.4573l-1.8101 1.3854q-1.3247 0.9-2.1236 0.9-0.12135 0-0.12135-0.13146 0-0.17191 0.25281-0.22247 0.34382-0.06067 0.87977-0.30337 0.63708-0.27303 2.6696-1.8809l2.5079-2.0932q2.1741-1.7899 2.3359-1.7899 0.37416 0 0.37416 0.4146 0 0.1618-1.0112 1.5067 1.1933-1.0011 1.9416-1.0011 0.78876 0 0.78876 0.84943 0 1.1022-1.2337 2.4876-1.0618 1.2034-2.2146 1.8 0.12135 0.03034 1.1933 0.03034 0.13146 0 0.13146 0.1618 0 0.21236-0.78876 0.21236-0.64719 0-1.0921-0.19213-0.2427 0.09101-0.4955 0.09101-1.0112 0-0.94044-1.4157l-5.4101 6.0876q-0.19213 0.22247-0.35393 0.22247-0.30337 0-0.30337-0.4955 0-0.48539 2.073-2.8416l2.1034-2.2955zm-0.37416 3.8629q1.173-0.66741 2.1741-2.0022 1.0112-1.3348 1.0112-1.7697 0-0.28314-0.31348-0.28314-0.59663 0-1.891 1.1326-0.93033 0.80898-1.6786 1.6584 0.29326 0 0.43483 0.51573 0.19213 0.6573 0.26292 0.74831zm-0.40449 0.14157-0.18202-0.66741q-0.15168-0.53595-0.22247-0.53595-0.20225 0-0.20225 0.68764 0 0.56629 0.40449 0.56629 0.11124 0 0.20225-0.05056z"/>
   <path d="m40.384 55.167q-0.05056-0.33371-0.05056-0.40449 0-0.27303 0.64719-0.84943 0.6573-0.58651 0.9-0.58651 0.23258 0 0.23258 0.21236 0 0.18202-0.25281 0.60674 1.1427 0 1.1427 0.91011 0 0.71797-1.4764 2.2955-1.4764 1.5674-1.4764 1.7595 0 0.18202 0.19213 0.20225l0.33371-0.01011q0.14157 0 0.14157 0.1618 0 0.20225-0.58651 0.20225-0.74831 0-0.74831-0.66741 0-0.6573 0.74831-1.6382 0.46517-0.61685 1.3854-1.527 0.74831-0.7382 0.74831-0.80898 0-0.15168-0.17191-0.15168-0.15168 0-0.5764 0.12135-0.42472 0.11124-0.50562 0.18202-4.7022 4.4595-6.3404 4.4595-0.12135 0-0.12135-0.13146 0-0.17191 0.27303-0.22247 0.33371-0.06067 0.87977-0.31348 0.8191-0.36404 2.4472-1.7292 1.4461-1.2034 2.2348-2.073z"/>
   <path d="m44.328 57.998q-0.50562 0.12135-1.9011 0.93033-1.2337 0.70786-1.8708 0.70786-0.12135 0-0.12135-0.13146 0-0.18202 0.26292-0.22247 0.61685-0.10112 1.7393-0.75842 1.2337-0.70786 2.0123-0.88988 0.46517-1.1225 1.9213-2.3562 1.5472-1.3247 2.6393-1.3247 0.80898 0 0.80898 0.68764 0 0.9-1.709 1.9618-1.2539 0.78876-2.5685 1.2337-0.14157 0.32359-0.14157 0.67752 0 0.52584 0.36404 0.68764 0.18202 0.07079 0.68764 0.09101 0.36404 0.01011 0.36404 0.17191 0 0.25281-1.2438 0.25281-1.3146 0-1.3146-1.1427 0-0.26292 0.07079-0.5764zm1.3348-0.56629q0.93033-0.45505 1.9618-1.2337 1.3753-1.0213 1.3753-1.618 0-0.2427-0.22247-0.2427-0.6573 0-1.7899 1.2135-1.0112 1.1022-1.3247 1.8809z"/>
   <path d="m50.385 57.513q-2.7 2.1236-3.7213 2.1236-0.12135 0-0.12135-0.13146 0-0.18202 0.2427-0.22247 0.95056-0.15168 2.6292-1.4663l1.3045-1.0213 2.0932-1.6685q1.4359-0.99101 2.4573-0.99101 0.75842 0 0.84943 0.75842 0.39438-0.37416 0.54606-0.37416 0.33371 0 0.33371 0.27303 0 0.35393-1.5573 2.164-1.5472 1.8101-1.5472 2.1135 0 0.21236 0.33371 0.22247 0.33371 0.01011 0.33371 0.17191 0 0.20225-0.68764 0.20225-0.67752 0-0.67752-0.59663 0-0.47528 0.54606-1.355l-1.2539 1.0618q-0.92022 0.68764-1.4663 0.68764-0.86966 0-0.86966-0.87977 0-0.48539 0.23258-1.0719zm5.0258-2.9629q-0.59663 0-2.4674 1.7798-1.8708 1.7798-1.8708 2.3764 0 0.27303 0.26292 0.27303 0.5764 0 2.4674-1.7393 1.9011-1.7494 1.9011-2.3562 0-0.33371-0.29326-0.33371z"/>
   <path d="m58.505 57.21-1.9112 1.4663q-1.4157 0.96067-2.1944 0.96067-0.12135 0-0.12135-0.12135 0-0.18202 0.20225-0.23258 0.77865-0.19213 1.4157-0.5764 0.96067-0.56629 2.6899-2.0831 1.7393-1.5168 2.6798-2.073 0.66741-0.39438 1.2034-0.39438 0.9 0 0.94044 0.74831 1.5168-1.9112 3.4382-4.0854 2.9528-3.3573 3.5292-3.3573 0.32359 0 0.32359 0.36404 0 0.30337-0.8191 1.1629-1.527 1.5876-4.5505 5.137-3.7112 4.3584-3.7112 4.9247 0 0.23258 0.33371 0.2427 0.33371 0.01011 0.33371 0.17191 0 0.20225-0.48539 0.20225-0.79887 0-0.79887-0.6573 0-0.52584 0.66741-1.6382-1.9921 2.1236-2.8314 2.1236-0.77865 0-0.77865-0.82921 0-0.46517 0.44494-1.4562zm0.61685 1.7595q0.5764 0 2.2854-1.7191 1.709-1.7292 1.709-2.3056 0-0.29326-0.27303-0.29326-0.70786 0-2.3157 1.6786-1.6079 1.6786-1.6079 2.427 0 0.21236 0.20225 0.21236z"/>
   <path d="m71.368 52.022q-0.48539 0-0.48539-0.4955 0-0.4146 0.4955-0.74831 0.44494-0.30337 0.88988-0.30337 0.52584 0 0.52584 0.5764 0 0.4146-0.52584 0.70786-0.45505 0.26292-0.9 0.26292zm-4.4696 7.0078q0 0.27303 0.58651 0.27303 0.13146 0 0.13146 0.1618 0 0.19213-0.66741 0.19213-0.75842 0-0.75842-0.72809 0-0.84943 2.255-3.5494l-2.7607 2.255q-2.4472 2.0022-3.5494 2.0022-0.12135 0-0.12135-0.13146 0-0.18202 0.20225-0.22247 0.63708-0.12135 1.1629-0.4146 0.6573-0.36404 2.791-2.0528l3.0944-2.5989q0.20225-0.07079 0.54606-0.07079 0.34382 0 0.34382 0.39438 0 0.42472-1.6281 2.2955-1.6281 1.8607-1.6281 2.1944z"/>
   <path d="m74.21 56.573q2.7809-2.3562 3.9033-2.3562 0.71797 0 0.71797 0.67752 0 0.59662-1.6281 2.164-1.6281 1.5573-1.6281 1.8809 0 0.32359 0.36404 0.35393 0.36404 0.02022 0.36404 0.17191 0 0.20225-0.72809 0.20225-0.83932 0-0.83932-0.74831 0-0.62696 0.80898-1.5876 0.4146-0.4955 1.4966-1.527 0.80898-0.76854 0.80898-0.93033 0-0.13146-0.18202-0.13146-0.5764 0-2.5079 1.5371-1.6079 1.2742-2.3865 2.0932-0.99101 1.0416-1.2034 1.0416-0.1618 0-0.29326-0.15168-0.13146-0.1618-0.13146-0.33371 0-0.23258 1.3955-1.8809l1.6685-1.9719-2.5888 2.1034-1.9112 1.4663q-1.4562 0.99101-2.2348 0.99101-0.13146 0-0.13146-0.12135 0-0.18202 0.28314-0.2427 0.38427-0.07079 0.9-0.30337 0.7382-0.32359 3.0135-2.164 2.0427-1.6584 2.9427-2.5382 0.15168-0.15168 0.47528-0.36404 0.1618-0.06067 0.34382-0.06067 0.17191 0 0.34382 0.12135 0.18202 0.11124 0.18202 0.27303 0 0.18202-1.618 2.3359z"/>
   <path d="m80.065 57.361q-1.4258 1.1124-1.8303 1.3753-1.3348 0.9-2.073 0.9-0.13146 0-0.13146-0.12135 0-0.17191 0.2427-0.23258 1.0719-0.25281 2.6595-1.4865l2.8314-2.255q2.0427-1.4966 3.0843-1.4966 0.85955 0 0.83932 0.96067 0.47528-0.54606 0.67752-0.54606 0.29326 0 0.29326 0.33371 0 0.31348-3.3977 4.5303 0.06067 0 0.23258-0.01011 0.14157-0.01011 0.22247-0.01011 0.13146 0 0.13146 0.1618 0 0.17191-0.39438 0.21236l-0.52584 0.03034q-4.9247 6.1078-7.2404 6.1078-0.95056 0-0.95056-0.79887 0-1.2742 1.891-3.0034 1.891-1.7191 5.2685-2.518 0.86966-0.97078 1.4056-1.7697-1.0315 0.9-1.3045 1.1022-0.91011 0.66741-1.5371 0.66741-0.7382 0-0.7382-0.88988 0-0.56629 0.34382-1.2438zm5.2483-2.518q0-0.36404-0.33371-0.36404-0.64719 0-2.4977 1.7798-1.8404 1.7697-1.8404 2.4775 0 0.25281 0.19213 0.25281 0.56629 0 2.4977-1.709 1.982-1.7595 1.982-2.4371zm-3.782 5.1472q-2.255 0.54606-4.3483 2.2652-2.0932 1.7292-2.0932 2.7303 0 0.42472 0.37416 0.42472 0.84943 0 3.1652-2.2652 1.7292-1.6888 2.9022-3.155z"/>
   <path d="m101.45 57.564q0.50562 0.04045 0.50562 0.48539 0 0.46517-0.39438 0.46517-0.091 0-0.11124-0.05056-0.0202-0.04045 0-0.11124 0.0202-0.10112 0.0202-0.12135 0-0.21236-0.46517-0.19213-2.8112 2.9831-4.5202 4.4292-3.3472 2.8618-5.3191 2.8618-0.46517 0-0.76854-0.29326-0.31348-0.29326-0.31348-0.75842 0-1.0416 1.7292-2.5786 1.5573-1.3955 3.8427-2.5584 2.3359-1.1831 4.3281-1.5573 1.4157-1.4157 4.2775-5.0865 3.1753-4.055 3.6303-5.3191 0.20225-0.5764 0.20225-0.87977 0-0.38427-0.34382-0.38427-1.3753 0-4.3483 1.1933-3.0034 1.2034-5.4809 3.3269-2.5079 2.1539-2.5079 3.7112 0 1.2337 1.2944 1.2337 1.7899 0 4.3483-1.3955 2.3865-1.3045 2.9225-2.5483 0.0607-0.13146 0.13146-0.17191 0.24269-0.01011 0.24269 0.39438 0 0.5764-1.1225 1.618-1.0719 0.99101-2.9427 1.8303-1.9719 0.87977-3.3067 0.87977-0.99101 0-1.6685-0.69775-0.66741-0.70786-0.66741-1.709 0-1.9213 2.4977-3.9842 2.1438-1.7697 5.309-3.0741 2.9932-1.2236 4.8236-1.2236 1.5371 0 1.5371 1.2135 0 2.3764-7.3618 11.053zm-1.9618 0.54606q-1.8708 0.48539-4.2269 1.8404-2.3865 1.3652-3.7011 2.7303-1.1124 1.1427-1.1124 1.6989 0 0.51573 0.63708 0.51573 0.51573 0 1.1933-0.32359 0.95056-0.46517 3.6505-2.973 2.0022-1.8607 3.5595-3.4887z"/>
   <path d="m107.21 56.937-2.0831 1.5876q-1.5977 1.1124-2.3865 1.1124-0.12135 0-0.12135-0.12135 0-0.19213 0.20225-0.23258 0.61685-0.11124 1.0517-0.35393 0.75842-0.4146 2.4674-1.7697l2.6696-2.1944q0.76853-0.67752 0.94044-0.67752 0.25281 0 0.55618 0.28314 0.58651-0.44494 1.0416-0.44494 0.68764 0 0.68764 0.7382 0 1.1022-1.7595 3.0034-1.7899 1.9213-2.8921 1.9213-1.0314 0-1.0314-1.082 0-0.56629 0.6573-1.7697zm3.4281 0.02023q0.37415-0.35393 0.74831-0.96067 0.4146-0.69775 0.4146-1.1124 0-0.38427-0.3337-0.38427-0.49551 0-1.0011 0.62696-0.49551 0.61685-0.49551 1.1225 0 0.56629 0.66742 0.70786zm-0.99101-1.264q-2.0629 1.8-2.0629 2.9326 0 0.48539 0.46517 0.48539 0.75842 0 2.3663-1.8303-0.84944-0.20225-0.84944-1.0921 0-0.23258 0.0809-0.4955z"/>
   <path d="m117.93 59.323 0.62696-0.02023q0.13146 0 0.13146 0.1618 0 0.18202-0.46516 0.22247l-0.62697 0.03034-2.8213 3.4887q-2.5382 2.8921-3.6 2.8921-0.50561 0-0.50561-0.67752 0-1.5067 1.982-3.4887 1.9921-1.9719 4.0955-2.4472l2.0932-2.7-1.6584 1.4764q-1.5168 1.2539-2.0629 1.2539-0.63708 0-0.63708-0.9 0-0.77865 0.7382-1.8303l1.2337-1.5573q-1.1932 1.0618-2.7404 2.2955-1.264 1.0011-1.709 1.2944-1.2236 0.8191-1.982 0.8191-0.12135 0-0.12135-0.13146 0-0.17191 0.20225-0.22247 1.2742-0.31348 3.5191-2.1539l1.7696-1.4562 1.1427-1.0112q0.96067-0.82921 1.082-0.82921 0.26292 0 0.4955 0.18202 0.2427 0.17191 0.2427 0.42472l-1.5978 1.8506q-1.5977 1.891-1.5977 2.518 0 0.18202 0.20224 0.18202 0.60674 0 2.9629-2.2449 1.7292-1.6483 2.8719-2.9427 0.23259-0.26292 0.33371-0.26292 0.19213 0 0.39438 0.14157 0.21236 0.13146 0.21236 0.31348 0 0.10112-0.13146 0.2427-1.8607 2.0225-4.0753 5.0865zm-1.5371 0.59663q-2.0326 0.6573-3.691 2.3966-1.6483 1.7494-1.6483 2.8719 0 0.34382 0.2427 0.34382 0.97078 0 5.0966-5.6123z"/>
   <path d="m121.37 59.616q-0.63707 0-0.63707-0.40449 0-0.40449 0.39438-0.8191 0.39438-0.4146 0.79887-0.4146 0.54606 0 0.54606 0.55618 0 1.2236-1.4258 2.255-0.70786 0.50562-1.0011 0.50562-0.21236 0-0.21236-0.19213 0-0.03034 0.67753-0.56629 0.71797-0.56629 0.85954-0.92022z"/>
   <path d="m141.47 53.65 0.77865-0.18202q0.54607-0.14157 0.74831-0.14157 0.25281 0 0.25281 0.17191 0 0.28314-2.5281 0.9-4.1359 4.1764-6.0674 5.5011-0.59662 0.40449-1.0213 0.40449-0.63708 0-0.63708-0.56629 0-0.35393 0.9809-1.4359 0.98089-1.082 1.264-1.082 0.14157 0 0.14157 0.15168 0 0.0809-0.62697 0.77865-0.67752 0.75842-0.76853 0.92022l0.0202 0.01011q0.38427-0.02023 4.7427-4.2775-1.0921 0.20225-2.3562 0.20225-1.7494 0-2.2753-0.70786-0.52584-0.70786-0.52584-1.2438 0-1.618 2.3157-3.4989 1.9921-1.6079 4.8842-2.8314 2.7607-1.173 4.3382-1.173 1.5573 0 1.5573 1.0517 0 1.8303-5.218 7.0483zm4.4292-7.3213q0-0.29326-0.39438-0.29326-0.77864 0-3.5191 1.1933-2.7708 1.2034-5.2382 3.1652-2.4674 1.9517-2.4674 2.8416 0 0.88988 2.518 0.88988 2.3359 0 2.8314-0.25281 0.14157-0.06067 2.3865-2.3562 1.1629-1.1831 2.2652-2.5281 1.618-1.9921 1.618-2.6595z"/>
   <path d="m143.32 57.361q-1.4258 1.1124-1.8303 1.3753-1.3348 0.9-2.073 0.9-0.13146 0-0.13146-0.12135 0-0.17191 0.2427-0.23258 1.0719-0.25281 2.6595-1.4865l2.8314-2.255q2.0427-1.4966 3.0842-1.4966 0.85955 0 0.83932 0.96067 0.47528-0.54606 0.67753-0.54606 0.29325 0 0.29325 0.33371 0 0.31348-3.3977 4.5303 0.0607 0 0.23258-0.01011 0.14158-0.01011 0.22247-0.01011 0.13146 0 0.13146 0.1618 0 0.17191-0.39438 0.21236l-0.52584 0.03034q-4.9247 6.1078-7.2404 6.1078-0.95055 0-0.95055-0.79887 0-1.2742 1.891-3.0034 1.891-1.7191 5.2685-2.518 0.86966-0.97078 1.4056-1.7697-1.0315 0.9-1.3045 1.1022-0.9101 0.66741-1.5371 0.66741-0.7382 0-0.7382-0.88988 0-0.56629 0.34382-1.2438zm5.2483-2.518q0-0.36404-0.33371-0.36404-0.64719 0-2.4977 1.7798-1.8404 1.7697-1.8404 2.4775 0 0.25281 0.19214 0.25281 0.56629 0 2.4977-1.709 1.982-1.7595 1.982-2.4371zm-3.782 5.1472q-2.255 0.54606-4.3483 2.2652-2.0932 1.7292-2.0932 2.7303 0 0.42472 0.37415 0.42472 0.84944 0 3.1652-2.2652 1.7292-1.6888 2.9022-3.155z"/>
   <path d="m153.68 56.573q2.7809-2.3562 3.9034-2.3562 0.71797 0 0.71797 0.67752 0 0.59662-1.6281 2.164-1.6281 1.5573-1.6281 1.8809 0 0.32359 0.36404 0.35393 0.36405 0.02022 0.36405 0.17191 0 0.20225-0.72809 0.20225-0.83932 0-0.83932-0.74831 0-0.62696 0.80898-1.5876 0.41461-0.4955 1.4966-1.527 0.80899-0.76854 0.80899-0.93033 0-0.13146-0.18202-0.13146-0.5764 0-2.5078 1.5371-1.6079 1.2742-2.3865 2.0932-0.991 1.0416-1.2034 1.0416-0.1618 0-0.29326-0.15168-0.13146-0.1618-0.13146-0.33371 0-0.23258 1.3955-1.8809l1.6685-1.9719-2.5888 2.1034-1.9112 1.4663q-1.4562 0.99101-2.2348 0.99101-0.13146 0-0.13146-0.12135 0-0.18202 0.28315-0.2427 0.38427-0.07079 0.89999-0.30337 0.7382-0.32359 3.0135-2.164 2.0427-1.6584 2.9427-2.5382 0.15169-0.15168 0.47528-0.36404 0.1618-0.06067 0.34382-0.06067 0.17191 0 0.34382 0.12135 0.18202 0.11124 0.18202 0.27303 0 0.18202-1.618 2.3359z"/>
   <path d="m164.86 52.022q-0.48539 0-0.48539-0.4955 0-0.4146 0.49551-0.74831 0.44494-0.30337 0.88988-0.30337 0.52584 0 0.52584 0.5764 0 0.4146-0.52584 0.70786-0.45506 0.26292-0.9 0.26292zm-4.4696 7.0078q0 0.27303 0.58652 0.27303 0.13146 0 0.13146 0.1618 0 0.19213-0.66741 0.19213-0.75843 0-0.75843-0.72809 0-0.84943 2.255-3.5494l-2.7607 2.255q-2.4472 2.0022-3.5494 2.0022-0.12135 0-0.12135-0.13146 0-0.18202 0.20225-0.22247 0.63707-0.12135 1.1629-0.4146 0.6573-0.36404 2.791-2.0528l3.0944-2.5989q0.20225-0.07079 0.54607-0.07079t0.34382 0.39438q0 0.42472-1.6281 2.2955-1.6281 1.8607-1.6281 2.1944z"/>
   <path d="m169.04 53.033-3.6404 0.14157q-0.30337 0-0.30337-0.1618 0-0.13146 0.4955-0.20225 0.69775-0.11124 1.9618-0.19213 1.4056-0.0809 1.9719-0.15168l1.4461-1.7292q1.1629-1.3753 1.4056-1.3753 0.30337 0 0.30337 0.38427 0 0.4146-1.8404 2.7202 1.0618-0.07079 1.7595-0.07079 0.46517 0 0.46517 0.18202 0 0.20225-1.1225 0.27303l-1.5371 0.05056-2.255 2.8213q-2.1337 2.7809-2.1337 3.3168 0 0.25281 0.34382 0.26292 0.34382 0 0.34382 0.1618 0 0.19213-0.44494 0.19213-0.9 0-0.9-0.72809 0-0.5764 0.58652-1.6483l0.87977-1.4764-2.9932 2.3562q-1.8708 1.4764-2.882 1.4764-0.12135 0-0.12135-0.13146 0-0.17191 0.20225-0.22247 0.34381-0.07079 1.0416-0.35393 0.67753-0.35393 3.0135-2.1843 1.7292-1.3449 2.1741-1.7494 0.79888-0.72809 1.7798-1.9618z"/>
   <path d="m175.78 52.022q-0.48539 0-0.48539-0.4955 0-0.4146 0.49551-0.74831 0.44494-0.30337 0.88988-0.30337 0.52584 0 0.52584 0.5764 0 0.4146-0.52584 0.70786-0.45506 0.26292-0.9 0.26292zm-4.4696 7.0078q0 0.27303 0.58652 0.27303 0.13146 0 0.13146 0.1618 0 0.19213-0.66741 0.19213-0.75843 0-0.75843-0.72809 0-0.84943 2.255-3.5494l-2.7607 2.255q-2.4472 2.0022-3.5494 2.0022-0.12135 0-0.12135-0.13146 0-0.18202 0.20225-0.22247 0.63707-0.12135 1.1629-0.4146 0.6573-0.36404 2.791-2.0528l3.0944-2.5989q0.20225-0.07079 0.54607-0.07079t0.34382 0.39438q0 0.42472-1.6281 2.2955-1.6281 1.8607-1.6281 2.1944z"/>
   <path d="m178.62 56.573q2.7809-2.3562 3.9034-2.3562 0.71797 0 0.71797 0.67752 0 0.59662-1.6281 2.164-1.6281 1.5573-1.6281 1.8809 0 0.32359 0.36404 0.35393 0.36405 0.02022 0.36405 0.17191 0 0.20225-0.72809 0.20225-0.83932 0-0.83932-0.74831 0-0.62696 0.80898-1.5876 0.41461-0.4955 1.4966-1.527 0.80899-0.76854 0.80899-0.93033 0-0.13146-0.18202-0.13146-0.5764 0-2.5078 1.5371-1.6079 1.2742-2.3865 2.0932-0.991 1.0416-1.2034 1.0416-0.1618 0-0.29326-0.15168-0.13146-0.1618-0.13146-0.33371 0-0.23258 1.3955-1.8809l1.6685-1.9719-2.5888 2.1034-1.9112 1.4663q-1.4562 0.99101-2.2348 0.99101-0.13146 0-0.13146-0.12135 0-0.18202 0.28315-0.2427 0.38427-0.07079 0.89999-0.30337 0.7382-0.32359 3.0135-2.164 2.0427-1.6584 2.9427-2.5382 0.15169-0.15168 0.47528-0.36404 0.1618-0.06067 0.34382-0.06067 0.17191 0 0.34382 0.12135 0.18202 0.11124 0.18202 0.27303 0 0.18202-1.618 2.3359z"/>
   <path d="m184.47 57.361q-1.4258 1.1124-1.8303 1.3753-1.3348 0.9-2.073 0.9-0.13146 0-0.13146-0.12135 0-0.17191 0.24269-0.23258 1.0719-0.25281 2.6595-1.4865l2.8314-2.255q2.0427-1.4966 3.0843-1.4966 0.85954 0 0.83932 0.96067 0.47528-0.54606 0.67752-0.54606 0.29326 0 0.29326 0.33371 0 0.31348-3.3977 4.5303 0.0607 0 0.23259-0.01011 0.14157-0.01011 0.22247-0.01011 0.13146 0 0.13146 0.1618 0 0.17191-0.39438 0.21236l-0.52584 0.03034q-4.9247 6.1078-7.2404 6.1078-0.95056 0-0.95056-0.79887 0-1.2742 1.891-3.0034 1.891-1.7191 5.2685-2.518 0.86966-0.97078 1.4056-1.7697-1.0314 0.9-1.3045 1.1022-0.91011 0.66741-1.5371 0.66741-0.7382 0-0.7382-0.88988 0-0.56629 0.34382-1.2438zm5.2483-2.518q0-0.36404-0.3337-0.36404-0.64719 0-2.4977 1.7798-1.8404 1.7697-1.8404 2.4775 0 0.25281 0.19213 0.25281 0.56629 0 2.4977-1.709 1.982-1.7595 1.982-2.4371zm-3.782 5.1472q-2.255 0.54606-4.3483 2.2652-2.0932 1.7292-2.0932 2.7303 0 0.42472 0.37416 0.42472 0.84943 0 3.1652-2.2652 1.7292-1.6888 2.9022-3.155z"/>
   <path d="m213.31 47.492q-0.34382 1.5371-2.1337 3.6708-1.9314 2.2955-3.2966 2.2955-0.80898 0-0.80898-0.76854 0-1.1629 2.1337-3.0944 1.9112-1.7191 3.3067-2.2854 0.11123-0.27303 0.11123-0.52584 0-0.76854-0.86966-0.76854-1.8708 0-5.1573 2.1236-3.1955 2.0629-5.582 4.7123-2.6191 2.9022-2.6191 4.8236 0 1.5472 1.8404 1.5472 1.3348 0 2.9123-0.71797 1.1022-0.50562 2.2753-1.3449l0.96067-0.71797q0.1618 0 0.1618 0.29326 0 0.72809-1.436 1.6685-0.95056 0.62696-2.1337 1.1225-1.173 0.48539-2.2854 0.48539-1.2742 0-2.1539-0.76854-0.92022-0.79887-0.92022-2.0629 0-2.6696 3.2258-5.8651 2.5989-2.5786 5.6123-4.1056 3.3977-1.7191 5.1775-1.7191 1.6382 0 1.7191 1.5472 0.32359-0.12135 0.47528-0.12135 0.18202 0 0.18202 0.18202 0 0.17191-0.69775 0.39438zm-1.0213 0.36404q-1.7191 0.87977-3.2157 2.5382-1.4966 1.6483-1.4966 2.1236 0 0.22247 0.17191 0.22247 0.70786 0 2.4573-2.0427 1.5067-1.7595 2.0831-2.8416z"/>
   <path d="m211.6 55.167q-0.0506-0.33371-0.0506-0.40449 0-0.27303 0.64719-0.84943 0.6573-0.58651 0.89999-0.58651 0.23258 0 0.23258 0.21236 0 0.18202-0.2528 0.60674 1.1427 0 1.1427 0.91011 0 0.71797-1.4764 2.2955-1.4764 1.5674-1.4764 1.7595 0 0.18202 0.19214 0.20225l0.3337-0.01011q0.14158 0 0.14158 0.1618 0 0.20225-0.58652 0.20225-0.74831 0-0.74831-0.66741 0-0.6573 0.74831-1.6382 0.46517-0.61685 1.3854-1.527 0.74831-0.7382 0.74831-0.80898 0-0.15168-0.17191-0.15168-0.15169 0-0.5764 0.12135-0.42472 0.11124-0.50562 0.18202-4.7022 4.4595-6.3404 4.4595-0.12135 0-0.12135-0.13146 0-0.17191 0.27303-0.22247 0.33371-0.06067 0.87977-0.31348 0.8191-0.36404 2.4472-1.7292 1.4461-1.2034 2.2348-2.073z"/>
   <path d="m215.54 57.998q-0.50562 0.12135-1.9011 0.93033-1.2337 0.70786-1.8708 0.70786-0.12135 0-0.12135-0.13146 0-0.18202 0.26292-0.22247 0.61685-0.10112 1.7393-0.75842 1.2337-0.70786 2.0124-0.88988 0.46516-1.1225 1.9213-2.3562 1.5472-1.3247 2.6393-1.3247 0.80899 0 0.80899 0.68764 0 0.9-1.709 1.9618-1.2539 0.78876-2.5685 1.2337-0.14157 0.32359-0.14157 0.67752 0 0.52584 0.36404 0.68764 0.18203 0.07079 0.68764 0.09101 0.36404 0.01011 0.36404 0.17191 0 0.25281-1.2438 0.25281-1.3146 0-1.3146-1.1427 0-0.26292 0.0708-0.5764zm1.3348-0.56629q0.93033-0.45505 1.9618-1.2337 1.3753-1.0213 1.3753-1.618 0-0.2427-0.22247-0.2427-0.6573 0-1.7899 1.2135-1.0112 1.1022-1.3247 1.8809z"/>
   <path d="m221.6 57.513q-2.7 2.1236-3.7213 2.1236-0.12135 0-0.12135-0.13146 0-0.18202 0.2427-0.22247 0.95056-0.15168 2.6292-1.4663l1.3045-1.0213 2.0932-1.6685q1.436-0.99101 2.4573-0.99101 0.75843 0 0.84944 0.75842 0.39438-0.37416 0.54606-0.37416 0.33371 0 0.33371 0.27303 0 0.35393-1.5573 2.164-1.5472 1.8101-1.5472 2.1135 0 0.21236 0.33371 0.22247 0.3337 0.01011 0.3337 0.17191 0 0.20225-0.68764 0.20225-0.67752 0-0.67752-0.59663 0-0.47528 0.54606-1.355l-1.2539 1.0618q-0.92022 0.68764-1.4663 0.68764-0.86966 0-0.86966-0.87977 0-0.48539 0.23258-1.0719zm5.0258-2.9629q-0.59663 0-2.4674 1.7798-1.8708 1.7798-1.8708 2.3764 0 0.27303 0.26292 0.27303 0.5764 0 2.4674-1.7393 1.9011-1.7494 1.9011-2.3562 0-0.33371-0.29325-0.33371z"/>
   <path d="m233.7 53.033-3.6404 0.14157q-0.30337 0-0.30337-0.1618 0-0.13146 0.49551-0.20225 0.69774-0.11124 1.9618-0.19213 1.4056-0.0809 1.9719-0.15168l1.4461-1.7292q1.1629-1.3753 1.4056-1.3753 0.30337 0 0.30337 0.38427 0 0.4146-1.8404 2.7202 1.0618-0.07079 1.7595-0.07079 0.46517 0 0.46517 0.18202 0 0.20225-1.1225 0.27303l-1.5371 0.05056-2.255 2.8213q-2.1337 2.7809-2.1337 3.3168 0 0.25281 0.34382 0.26292 0.34382 0 0.34382 0.1618 0 0.19213-0.44494 0.19213-0.9 0-0.9-0.72809 0-0.5764 0.58652-1.6483l0.87977-1.4764-2.9932 2.3562q-1.8708 1.4764-2.882 1.4764-0.12135 0-0.12135-0.13146 0-0.17191 0.20225-0.22247 0.34381-0.07079 1.0416-0.35393 0.67753-0.35393 3.0135-2.1843 1.7292-1.3449 2.1742-1.7494 0.79887-0.72809 1.7798-1.9618z"/>
   <path d="m240.44 52.022q-0.48539 0-0.48539-0.4955 0-0.4146 0.49551-0.74831 0.44494-0.30337 0.88988-0.30337 0.52584 0 0.52584 0.5764 0 0.4146-0.52584 0.70786-0.45505 0.26292-0.9 0.26292zm-4.4696 7.0078q0 0.27303 0.58651 0.27303 0.13146 0 0.13146 0.1618 0 0.19213-0.66741 0.19213-0.75843 0-0.75843-0.72809 0-0.84943 2.255-3.5494l-2.7607 2.255q-2.4472 2.0022-3.5494 2.0022-0.12135 0-0.12135-0.13146 0-0.18202 0.20225-0.22247 0.63707-0.12135 1.1629-0.4146 0.6573-0.36404 2.791-2.0528l3.0944-2.5989q0.20225-0.07079 0.54607-0.07079t0.34382 0.39438q0 0.42472-1.6281 2.2955-1.6281 1.8607-1.6281 2.1944z"/>
   <path d="m244.74 57.159q-0.31348-0.060674-0.31348-0.40449 0-0.6573 0.86966-1.7292 0.86965-1.082 1.4865-1.082 0.35394 0 0.35394 0.37416 0 0.99101-2.0831 3.1348-2.1135 2.164-3.1955 2.164-0.84943 0-0.84943-0.92022 0-0.78876 0.86966-1.982l1.4157-1.7494q-0.99101 0.92022-2.6798 2.255l-1.8809 1.4562q-1.4157 0.96067-2.2045 0.96067-0.12135 0-0.12135-0.12135 0-0.19213 0.25281-0.23258 0.35393-0.06067 0.87977-0.28314 0.61685-0.26292 2.7809-1.9921 0.9809-0.76854 2.8416-2.4067 0.67752-0.66741 1.0112-0.66741 0.5764 0 0.5764 0.5764 0 0.37416-1.3955 2.0225-1.3955 1.6382-1.3955 2.2348 0 0.31348 0.29325 0.31348 0.68764 0 2.4876-1.9213zm0.29326-0.29326q0.39438-0.39438 0.92022-1.1022 0.63707-0.86966 0.63707-1.173l-0.0809-0.0809q-0.30337 0-0.991 0.9-0.67753 0.88988-0.67753 1.2539 0 0.1618 0.19214 0.20225z"/>
   <path d="m253.59 52.022q-0.48539 0-0.48539-0.4955 0-0.4146 0.4955-0.74831 0.44494-0.30337 0.88988-0.30337 0.52584 0 0.52584 0.5764 0 0.4146-0.52584 0.70786-0.45505 0.26292-0.89999 0.26292zm-4.4696 7.0078q0 0.27303 0.58651 0.27303 0.13146 0 0.13146 0.1618 0 0.19213-0.66741 0.19213-0.75842 0-0.75842-0.72809 0-0.84943 2.255-3.5494l-2.7607 2.255q-2.4472 2.0022-3.5494 2.0022-0.12134 0-0.12134-0.13146 0-0.18202 0.20224-0.22247 0.63708-0.12135 1.1629-0.4146 0.6573-0.36404 2.791-2.0528l3.0944-2.5989q0.20224-0.07079 0.54606-0.07079t0.34382 0.39438q0 0.42472-1.6281 2.2955-1.6281 1.8607-1.6281 2.1944z"/>
   <path d="m257.78 53.033-3.6404 0.14157q-0.30336 0-0.30336-0.1618 0-0.13146 0.4955-0.20225 0.69775-0.11124 1.9618-0.19213 1.4056-0.0809 1.9719-0.15168l1.4461-1.7292q1.1629-1.3753 1.4056-1.3753 0.30337 0 0.30337 0.38427 0 0.4146-1.8404 2.7202 1.0618-0.07079 1.7596-0.07079 0.46516 0 0.46516 0.18202 0 0.20225-1.1225 0.27303l-1.5371 0.05056-2.255 2.8213q-2.1337 2.7809-2.1337 3.3168 0 0.25281 0.34381 0.26292 0.34382 0 0.34382 0.1618 0 0.19213-0.44494 0.19213-0.89999 0-0.89999-0.72809 0-0.5764 0.58651-1.6483l0.87977-1.4764-2.9932 2.3562q-1.8708 1.4764-2.882 1.4764-0.12135 0-0.12135-0.13146 0-0.17191 0.20225-0.22247 0.34382-0.07079 1.0416-0.35393 0.67752-0.35393 3.0135-2.1843 1.7292-1.3449 2.1742-1.7494 0.79887-0.72809 1.7798-1.9618z"/>
   <path d="m263.19 59.323 0.62697-0.02023q0.13146 0 0.13146 0.1618 0 0.18202-0.46517 0.22247l-0.62696 0.03034-2.8213 3.4887q-2.5382 2.8921-3.6 2.8921-0.50562 0-0.50562-0.67752 0-1.5067 1.982-3.4887 1.9921-1.9719 4.0955-2.4472l2.0932-2.7-1.6584 1.4764q-1.5168 1.2539-2.0629 1.2539-0.63707 0-0.63707-0.9 0-0.77865 0.7382-1.8303l1.2337-1.5573q-1.1932 1.0618-2.7404 2.2955-1.264 1.0011-1.709 1.2944-1.2236 0.8191-1.982 0.8191-0.12134 0-0.12134-0.13146 0-0.17191 0.20224-0.22247 1.2742-0.31348 3.5191-2.1539l1.7697-1.4562 1.1427-1.0112q0.96067-0.82921 1.082-0.82921 0.26292 0 0.49551 0.18202 0.24269 0.17191 0.24269 0.42472l-1.5977 1.8506q-1.5978 1.891-1.5978 2.518 0 0.18202 0.20225 0.18202 0.60674 0 2.9629-2.2449 1.7292-1.6483 2.8719-2.9427 0.23258-0.26292 0.3337-0.26292 0.19214 0 0.39438 0.14157 0.21236 0.13146 0.21236 0.31348 0 0.10112-0.13146 0.2427-1.8607 2.0225-4.0753 5.0865zm-1.5371 0.59663q-2.0326 0.6573-3.691 2.3966-1.6483 1.7494-1.6483 2.8719 0 0.34382 0.24269 0.34382 0.97078 0 5.0966-5.6123z"/>
  </g>
  <g transform="translate(4.0836 -4.5134)">
   <path class="cls-4" d="m278.76 13.87a8.5385 7.64 0 0 1-8.5385 7.64 8.5385 7.64 0 0 1-8.5385-7.64 8.5385 7.64 0 0 1 8.5385-7.64 8.5385 7.64 0 0 1 8.5385 7.64z" fill="#f26531" stroke-width=".86393"/>
   <g fill="#fff" aria-label="R">
    <path d="m270 13.073q0.78776 0 1.1263-0.29297 0.34505-0.29297 0.34505-0.96354 0-0.66406-0.34505-0.95052-0.33854-0.28646-1.1263-0.28646h-1.0547v2.4935zm-1.0547 1.7318v3.6784h-2.5065v-9.72h3.8281q1.9206 0 2.8125 0.64453 0.89844 0.64453 0.89844 2.0378 0 0.96354-0.46875 1.582-0.46224 0.61849-1.3997 0.91146 0.51432 0.11719 0.91797 0.53385 0.41015 0.41016 0.82682 1.25l1.3607 2.7604h-2.6693l-1.1849-2.4154q-0.35807-0.72916-0.72916-0.99609-0.36458-0.26693-0.97656-0.26693z" fill="#fff"/>
   </g>
  </g>
 </g>
</svg>
