<?xml version="1.0" encoding="UTF-8" standalone="no"?>
<svg
   xmlns:dc="http://purl.org/dc/elements/1.1/"
   xmlns:cc="http://creativecommons.org/ns#"
   xmlns:rdf="http://www.w3.org/1999/02/22-rdf-syntax-ns#"
   xmlns:svg="http://www.w3.org/2000/svg"
   xmlns="http://www.w3.org/2000/svg"
   xmlns:sodipodi="http://sodipodi.sourceforge.net/DTD/sodipodi-0.dtd"
   xmlns:inkscape="http://www.inkscape.org/namespaces/inkscape"
   width="24"
   height="24"
   fill="currentColor"
   class="bi bi-whatsapp"
   viewBox="0 0 24 24"
   version="1.1"
   id="svg4"
   sodipodi:docname="whatsapp.svg"
   inkscape:export-filename="D:\software\bring2home\digital\images\whatsapp.png"
   inkscape:export-xdpi="96"
   inkscape:export-ydpi="96"
   inkscape:version="1.0.1 (3bc2e813f5, 2020-09-07)">
  <metadata
     id="metadata10">
    <rdf:RDF>
      <cc:Work
         rdf:about="">
        <dc:format>image/svg+xml</dc:format>
        <dc:type
           rdf:resource="http://purl.org/dc/dcmitype/StillImage" />
        <dc:title></dc:title>
      </cc:Work>
    </rdf:RDF>
  </metadata>
  <defs
     id="defs8" />
  <sodipodi:namedview
     pagecolor="#ffffff"
     bordercolor="#666666"
     borderopacity="1"
     objecttolerance="10"
     gridtolerance="10"
     guidetolerance="10"
     inkscape:pageopacity="0"
     inkscape:pageshadow="2"
     inkscape:window-width="1920"
     inkscape:window-height="1001"
     id="namedview6"
     showgrid="false"
     inkscape:zoom="36.686857"
     inkscape:cx="7.9903614"
     inkscape:cy="6.4524298"
     inkscape:window-x="-9"
     inkscape:window-y="-9"
     inkscape:window-maximized="1"
     inkscape:current-layer="svg4"
     inkscape:document-rotation="0" />
  <path
     d="M 20.455468,3.4890708 A 11.774959,11.774959 0 0 0 12.044997,8.2920189e-5 C 5.4945205,8.2920189e-5 0.15603899,5.3370644 0.15003901,11.889042 c 0,2.098492 0.5489981,4.139985 1.58549449,5.947479 L 0.05403934,24 6.3600175,22.347005 A 11.849959,11.849959 0 0 0 12.044997,23.7945 h 0.006 c 6.551978,0 11.888959,-5.336981 11.894959,-11.894959 A 11.849959,11.849959 0 0 0 20.453968,3.4890708 Z M 12.044997,21.781507 A 9.8999657,9.8999657 0 0 1 7.0110152,20.401512 L 6.6510164,20.185513 2.9100294,21.166509 3.9090259,17.517022 3.6750268,17.140523 A 9.8399659,9.8399659 0 0 1 2.164532,11.883042 c 0,-5.4389814 4.4354846,-9.875966 9.886465,-9.875966 a 9.8399659,9.8399659 0 0 1 6.989976,2.8964899 9.8399659,9.8399659 0 0 1 2.89199,6.9899761 c -0.006,5.458481 -4.441484,9.887965 -9.887966,9.887965 m 5.422482,-7.400974 c -0.295499,-0.1485 -1.754994,-0.866997 -2.029493,-0.968997 -0.272999,-0.0975 -0.472499,-0.148499 -0.667498,0.1485 -0.199499,0.295499 -0.769497,0.968996 -0.940497,1.162496 -0.170999,0.199499 -0.347999,0.221999 -0.644997,0.075 -0.295499,-0.15 -1.253996,-0.461999 -2.387992,-1.477495 -0.8849968,-0.787498 -1.4774948,-1.762494 -1.6544942,-2.057993 -0.1709994,-0.296999 -0.0165,-0.455999 0.1319996,-0.604498 0.1304995,-0.132 0.2954989,-0.347999 0.4439984,-0.518998 0.1499995,-0.1709996 0.1994993,-0.2969992 0.2969992,-0.4949985 0.0975,-0.2009993 0.051,-0.3719987 -0.0225,-0.5204982 C 9.9180051,8.9745518 9.3255072,7.5090569 9.0750081,6.9180589 8.8350089,6.334561 8.5905097,6.4155607 8.4075104,6.4080607 8.236511,6.3975608 8.0370116,6.3975608 7.8375123,6.3975608 A 1.0949962,1.0949962 0 0 0 7.0440151,6.7680595 C 6.771016,7.0650584 6.0075187,7.7835559 6.0075187,9.2490509 c 0,1.4654951 1.0649963,2.8739901 1.2149958,3.0734891 0.1469995,0.199499 2.0909927,3.197989 5.0744825,4.487984 0.704997,0.307499 1.259995,0.488999 1.693494,0.626998 0.712497,0.228 1.355995,0.1935 1.868993,0.12 0.569998,-0.087 1.756494,-0.719998 2.006993,-1.414495 0.245999,-0.695998 0.245999,-1.289996 0.171,-1.414495 -0.0735,-0.126 -0.272999,-0.1995 -0.569998,-0.347999"
     id="path2"
     style="stroke-width:1.49999" />
</svg>
