<?xml version="1.0" encoding="UTF-8" standalone="no"?>
<svg
   xmlns:dc="http://purl.org/dc/elements/1.1/"
   xmlns:cc="http://creativecommons.org/ns#"
   xmlns:rdf="http://www.w3.org/1999/02/22-rdf-syntax-ns#"
   xmlns:svg="http://www.w3.org/2000/svg"
   xmlns="http://www.w3.org/2000/svg"
   xmlns:sodipodi="http://sodipodi.sourceforge.net/DTD/sodipodi-0.dtd"
   xmlns:inkscape="http://www.inkscape.org/namespaces/inkscape"
   width="24"
   height="24"
   fill="currentColor"
   class="bi bi-youtube"
   viewBox="0 0 24 24"
   version="1.1"
   id="svg4"
   sodipodi:docname="youtube.svg"
   inkscape:version="1.0.1 (3bc2e813f5, 2020-09-07)">
  <metadata
     id="metadata10">
    <rdf:RDF>
      <cc:Work
         rdf:about="">
        <dc:format>image/svg+xml</dc:format>
        <dc:type
           rdf:resource="http://purl.org/dc/dcmitype/StillImage" />
        <dc:title></dc:title>
      </cc:Work>
    </rdf:RDF>
  </metadata>
  <defs
     id="defs8" />
  <sodipodi:namedview
     pagecolor="#ffffff"
     bordercolor="#666666"
     borderopacity="1"
     objecttolerance="10"
     gridtolerance="10"
     guidetolerance="10"
     inkscape:pageopacity="0"
     inkscape:pageshadow="2"
     inkscape:window-width="1920"
     inkscape:window-height="1001"
     id="namedview6"
     showgrid="false"
     inkscape:zoom="21.067885"
     inkscape:cx="8"
     inkscape:cy="8"
     inkscape:window-x="-9"
     inkscape:window-y="-9"
     inkscape:window-maximized="1"
     inkscape:current-layer="svg4" />
  <path
     d="m 12.077258,3.57 h 0.133512 c 1.23311,0.0045 7.481165,0.049504 9.165814,0.5025447 a 3.0152682,3.0152682 0 0 1 2.12269,2.1301894 c 0.151513,0.5700508 0.258022,1.3246179 0.330028,2.1031872 l 0.015,0.1560138 0.033,0.3900347 0.012,0.156014 c 0.09751,1.3711222 0.109514,2.6552362 0.111014,2.9357612 v 0.112509 c -0.0015,0.291027 -0.015,1.662148 -0.123011,3.090276 l -0.012,0.157513 -0.0135,0.156015 c -0.07501,0.858076 -0.186017,1.710152 -0.352531,2.337207 a 3.0152682,3.0152682 0 0 1 -2.12269,2.13019 C 19.63643,20.395497 13.022343,20.4285 12.105762,20.43 h -0.213019 c -0.463542,0 -2.3807124,-0.009 -4.3908911,-0.07801 l -0.2550228,-0.009 -0.1305115,-0.006 -0.2565229,-0.0105 -0.2565228,-0.0105 C 4.9381227,20.242483 3.3524817,20.123973 2.6219168,19.925955 A 3.0152682,3.0152682 0 0 1 0.49922793,17.797265 C 0.33271312,17.17171 0.22170325,16.318134 0.14669658,15.460058 L 0.13469546,15.302543 0.12269434,15.14653 A 46.504136,46.504136 0 0 1 -3.165e-4,12.092258 V 11.907742 C 0.00268377,11.585213 0.01468484,10.470614 0.09569204,9.2405044 l 0.01050094,-0.1545138 0.0045,-0.078007 0.0120011,-0.156014 0.033003,-0.3900347 0.0150013,-0.1560138 C 0.24270512,7.527352 0.3492146,6.7712848 0.50072806,6.2027341 A 3.0152682,3.0152682 0 0 1 2.6234169,4.0725447 C 3.3539818,3.8775273 4.9396229,3.7575167 6.604771,3.68251 l 0.2550227,-0.010501 0.258023,-0.009 0.1290114,-0.0045 L 7.503351,3.648008 A 150.01335,150.01335 0 0 1 11.787733,3.5715 Z M 9.6005375,8.3854284 V 15.613072 L 15.836593,12.00075 Z"
     id="path2"
     style="stroke-width:1.50013" />
</svg>
