<svg width="60mm" height="60mm" version="1.1" viewBox="0 0 60 60" xmlns="http://www.w3.org/2000/svg">
    <g transform="translate(2.4991 -.053861)">
        <g
          transform="matrix(.64517 0 0 .64517 -2.804 10.664)"
          shape-rendering="auto"
        >
          <path
            d="m44.94 10.855a4.5005 4.5005 0 0 0-4.2227 2.834c-2.0279 5.0896-5.9664 10.39-9.3828 16.391-3.4164 6.0007-6.3249 13.097-4.9297 21.307a4.5 4.5 0 0 0 5.1914 3.6816 4.5 4.5 0 0 0 3.6816-5.1895c-0.9147-5.382 0.86118-10.045 3.8789-15.346 1.6593-2.9145 3.6757-5.9268 5.6094-9.1348l13.23 27.295a4.5005 4.5005 0 0 0 8.5469-1.8105l0.55664-16.377 0.46485-10.01a4.5 4.5 0 0 0-4.2871-4.7031 4.5 4.5 0 0 0-4.7031 4.2871l-0.38867 8.3711-9.2402-19.061a4.5005 4.5005 0 0 0-4.0059-2.5352z"
            color="currentColor"
          />
          <path
            d="m64.964 5.1753c-2.8219-1.0477-5.8441 0.81566-7.033 3.507-1.1889 2.6913-0.43337 5.9593 2.3886 7.007 2.8219 1.0477 5.8468-0.81677 7.0356-3.5081 1.1889-2.6913 0.43075-5.9582-2.3912-7.0059zm-1.6179 3.6625c0.31024 0.11518 0.73825 0.85695 0.25548 1.9498-0.48277 1.0929-1.354 1.3544-1.6642 1.2392-0.31025-0.11518-0.73563-0.85806-0.25286-1.9509 0.48277-1.0929 1.3513-1.3533 1.6616-1.2381z"
            color="currentColor"
          />
          <path
            d="m36.035 36.238a2.5 2.5 0 0 0-2.5 2.5 2.5 2.5 0 0 0 2.5 2.5h8.6016a2.5 2.5 0 0 0 2.5-2.5 2.5 2.5 0 0 0-2.5-2.5z"
            color="currentColor"
          />
        </g>
        <g transform="matrix(1 0 0 1.3906 4.3346 -14.924)" aria-label="{">
          <path
            d="m10.1 47.245v2.6789h-1.1534q-4.6323 0-6.2136-1.3767-1.5627-1.3767-1.5627-5.488v-4.4462q0-2.8091-1.0046-3.8881-1.0046-1.079-3.6463-1.079h-1.1348v-2.6603h1.1348q2.6603 0 3.6463-1.0604 1.0046-1.079 1.0046-3.8509v-4.4648q0-4.1114 1.5627-5.4694 1.5813-1.3767 6.2136-1.3767h1.1534v2.6603h-1.265q-2.6231 0-3.423 0.81856-0.79995 0.81855-0.79995 3.4416v4.6137q0 2.9208-0.85576 4.2416-0.83716 1.3208-2.8835 1.7859 2.065 0.5023 2.9021 1.8231 0.83716 1.3208 0.83716 4.223v4.6137q0 2.6231 0.79995 3.4417 0.79995 0.81855 3.423 0.81855z"
            stroke-width=".26457"
          />
        </g>
        <g transform="matrix(-1 0 0 1.3906 50.761 -14.924)" aria-label="{">
          <path
            d="m10.1 47.245v2.6789h-1.1534q-4.6323 0-6.2136-1.3767-1.5627-1.3767-1.5627-5.488v-4.4462q0-2.8091-1.0046-3.8881-1.0046-1.079-3.6463-1.079h-1.1348v-2.6603h1.1348q2.6603 0 3.6463-1.0604 1.0046-1.079 1.0046-3.8509v-4.4648q0-4.1114 1.5627-5.4694 1.5813-1.3767 6.2136-1.3767h1.1534v2.6603h-1.265q-2.6231 0-3.423 0.81856-0.79995 0.81855-0.79995 3.4416v4.6137q0 2.9208-0.85576 4.2416-0.83716 1.3208-2.8835 1.7859 2.065 0.5023 2.9021 1.8231 0.83716 1.3208 0.83716 4.223v4.6137q0 2.6231 0.79995 3.4417 0.79995 0.81855 3.423 0.81855z"
            stroke-width=".26458"
          />
        </g>
     </g>
</svg>
