<svg width="60mm" height="60mm" version="1.1" viewBox="0 0 60 60" xmlns="http://www.w3.org/2000/svg">
<g transform="translate(2.1167 16.933)">
        <path
          d="m11.714 32.646a4.1383 4.1383 0 0 1-4.1301 4.1383 4.1383 4.1383 0 0 1-4.1464-4.1219 4.1383 4.1383 0 0 1 4.1137-4.1546 4.1383 4.1383 0 0 1 4.1627 4.1055"
          fill="none"
          opacity="1"
          stroke="currentColor"
          stroke-linecap="round"
          stroke-linejoin="round"
          stroke-width="1.793"
        />
        <path
          d="m9.4572 32.613a1.9135 1.9135 0 0 1-1.9097 1.9135 1.9135 1.9135 0 0 1-1.9172-1.9059 1.9135 1.9135 0 0 1 1.9021-1.921 1.9135 1.9135 0 0 1 1.9247 1.8983"
          opacity="1"
        />
      </g>
      <path
        transform="matrix(.77713 0 0 .64393 39.837 9.1157)"
        d="m15.192 9.5703a1.1501 1.1501 0 0 0-0.72852 0.31641l-4.873 4.6484-0.75781-1.1914a1.1501 1.1501 0 0 0-2.0527 0.23047l-0.87891 2.459a1.1501 1.1501 0 0 0 0.13867 1.043l2.4453 3.5137a1.1501 1.1501 0 0 0 1.7793 0.13281l7.0508-7.457a1.1501 1.1501 0 0 0 0.10742-1.4473l-1.2227-1.7559a1.1501 1.1501 0 0 0-1.0078-0.49219zm-2.002 4.7109-3.627 3.834-0.46289-0.66602a1.1501 1.1501 0 0 0 1.0645-0.2832z"
        color="currentColor"
      />
      <g
        transform="matrix(.5018 0 0 .5018 30.897 26.85)"
        shape-rendering="auto"
      >
        <path
          d="m20.214 10.683a4.5004 4.5004 0 0 0-4.2227 2.834c-2.0279 5.0896-5.9645 10.39-9.3809 16.391-3.4164 6.0007-6.3268 13.097-4.9316 21.307a4.5 4.5 0 0 0 5.1914 3.6816 4.5 4.5 0 0 0 3.6816-5.1895c-0.9147-5.382 0.86118-10.045 3.8789-15.346 1.6593-2.9145 3.6757-5.9268 5.6094-9.1348l13.23 27.295a4.5004 4.5004 0 0 0 8.5469-1.8105l0.55664-16.377 0.46484-10.008a4.5 4.5 0 0 0-4.2852-4.7051 4.5 4.5 0 0 0-4.7051 4.2871l-0.38867 8.3691-9.2383-19.059a4.5004 4.5004 0 0 0-4.0078-2.5352z"
          color="currentColor"
        />
        <path
          d="m40.241 5.0031c-2.8219-1.0477-5.8468 0.81676-7.0356 3.5081-1.1889 2.6913-0.43075 5.9582 2.3912 7.0059 2.8219 1.0477 5.8441-0.81566 7.033-3.507 1.1889-2.6913 0.43337-5.9593-2.3886-7.007zm-1.6179 3.6625c0.31025 0.11519 0.73563 0.85806 0.25286 1.9509-0.48277 1.0929-1.3521 1.3551-1.6624 1.2399-0.31025-0.11518-0.73746-0.85874-0.25469-1.9516 0.48278-1.0929 1.354-1.3544 1.6642-1.2392z"
          color="currentColor"
        />
        <path
          d="m11.31 36.066a2.5 2.5 0 0 0-2.5 2.5 2.5 2.5 0 0 0 2.5 2.5h8.6016a2.5 2.5 0 0 0 2.5-2.5 2.5 2.5 0 0 0-2.5-2.5z"
          color="currentColor"
        />
      </g>
      <g
        fill="none"
        stroke="currentColor"
        stroke-linecap="round"
        stroke-linejoin="round"
      >
        <path d="m8.533 9.0167h42.01" stroke-width="7" />
        <path d="m7.7527 19.05h30.251" stroke-width="5" />
        <rect
          x="6.4355"
          y="29.396"
          width="6.425"
          height="6.425"
          ry=".93838"
          opacity="1"
          stroke-width="3"
        />
        <rect
          x="17.992"
          y="29.558"
          width="6.425"
          height="6.425"
          ry=".93838"
          opacity="1"
          stroke-width="3"
        />
      </g>
</svg>
