<svg width="60mm" height="60mm" version="1.1" viewBox="0 0 60 60" xmlns="http://www.w3.org/2000/svg">
    <g transform="translate(2.4991 -.053861)">
        <path
          d="m53.592 30.054-13.046 22.596h-26.091l-13.046-22.596 13.046-22.596h26.091z"
          fill="none"
          opacity="1"
          stroke="currentColor"
          stroke-linejoin="round"
          stroke-width="2.8175"
        />
        <g
          transform="matrix(.31064 0 0 .31064 19.933 20.771)"
          shape-rendering="auto"
        >
          <path
            d="m22.331 10.683a4.5004 4.5004 0 0 0-4.2227 2.834c-2.0279 5.0896-5.9645 10.39-9.3809 16.391-3.4164 6.0007-6.3268 13.097-4.9316 21.307a4.5 4.5 0 0 0 5.1914 3.6816 4.5 4.5 0 0 0 3.6816-5.1895c-0.9147-5.382 0.86118-10.045 3.8789-15.346 1.6593-2.9145 3.6757-5.9268 5.6094-9.1348l13.23 27.295a4.5004 4.5004 0 0 0 8.5469-1.8105l0.55664-16.377 0.46484-10.008a4.5 4.5 0 0 0-4.2852-4.7051 4.5 4.5 0 0 0-4.7051 4.2871l-0.38867 8.3691-9.2383-19.059a4.5004 4.5004 0 0 0-4.0078-2.5352z"
            color="currentColor"
          />
          <path
            d="m42.357 5.0031c-2.8219-1.0477-5.8468 0.81676-7.0356 3.5081-1.1889 2.6913-0.43075 5.9582 2.3912 7.0059 2.8219 1.0477 5.8441-0.81566 7.033-3.507 1.1889-2.6913 0.43337-5.9593-2.3886-7.007zm-1.6179 3.6625c0.31025 0.11519 0.73563 0.85806 0.25286 1.9509-0.48277 1.0929-1.3521 1.3551-1.6624 1.2399-0.31025-0.11518-0.73746-0.85874-0.25469-1.9516 0.48278-1.0929 1.354-1.3544 1.6642-1.2392z"
          />
          <path
            d="m13.426 36.066a2.5 2.5 0 0 0-2.5 2.5 2.5 2.5 0 0 0 2.5 2.5h8.6016a2.5 2.5 0 0 0 2.5-2.5 2.5 2.5 0 0 0-2.5-2.5z"
            color="currentColor"
          />
        </g>
        <path
          d="m41.391 30.054a13.891 13.891 0 0 1-13.863 13.891 13.891 13.891 0 0 1-13.918-13.836 13.891 13.891 0 0 1 13.808-13.945 13.891 13.891 0 0 1 13.973 13.781"
          fill="none"
          opacity="1"
          stroke="currentColor"
          stroke-width="3"
        />
     </g>
</svg>
